<?xml version="1.0" encoding="utf-8"?>
<!-- Generator: Adobe Illustrator 16.0.0, SVG Export Plug-In . SVG Version: 6.00 Build 0)  -->
<!DOCTYPE svg PUBLIC "-//W3C//DTD SVG 1.1//EN" "http://www.w3.org/Graphics/SVG/1.1/DTD/svg11.dtd">
<svg version="1.1" id="Layer_1" xmlns="http://www.w3.org/2000/svg" xmlns:xlink="http://www.w3.org/1999/xlink" x="0px" y="0px"
	 width="1028.943px" height="536.229px" viewBox="0 0 1028.943 536.229" enable-background="new 0 0 1028.943 536.229"
	 xml:space="preserve">
<g>
	<g>
		<path fill="none" d="M732.195,41.24c-1.526,0.066-3.062,0.138-4.607,0.217c-172.973,8.865-375.706,97.1-498.932,214.279h5.541
			C360.926,138.69,562.683,50.697,732.195,41.24z"/>
		<path fill="none" d="M909.652,124.487c-0.071,34.818-22.731,78.874-69.5,129.144c-0.654,0.704-1.328,1.402-1.989,2.104h3.671
			c1.277-1.384,2.56-2.766,3.814-4.156C890.255,202.153,911.038,158.812,909.652,124.487z"/>
		<path fill="none" d="M687.433,76.904c-146.934,11.607-314.985,83.739-420.489,178.831h3.192
			C378.027,162.033,543.425,90.691,687.433,76.904z"/>
		<path fill="none" d="M664.758,125.014c-117.032,5.999-253.614,59.265-341.479,130.722h428.292
			C829.95,173.137,794.189,118.38,664.758,125.014z"/>
		
			<radialGradient id="SVGID_1_" cx="370.1182" cy="3581.9951" r="433.3481" gradientTransform="matrix(0.7839 -0.0402 -0.5277 0.5463 2121.3828 -1670.0964)" gradientUnits="userSpaceOnUse">
			<stop  offset="0.7204" style="stop-color:#F6EB16"/>
			<stop  offset="0.7688" style="stop-color:#EC008C"/>
			<stop  offset="0.7767" style="stop-color:#CF1F8E"/>
			<stop  offset="0.7869" style="stop-color:#B33092"/>
			<stop  offset="0.7983" style="stop-color:#993995"/>
			<stop  offset="0.8108" style="stop-color:#823E98"/>
			<stop  offset="0.8246" style="stop-color:#6E4199"/>
			<stop  offset="0.8402" style="stop-color:#5C449B"/>
			<stop  offset="0.8584" style="stop-color:#4C459C"/>
			<stop  offset="0.8809" style="stop-color:#40469D"/>
			<stop  offset="0.9124" style="stop-color:#38479D"/>
			<stop  offset="1" style="stop-color:#36479D"/>
		</radialGradient>
		<path fill="url(#SVGID_1_)" d="M297.004,255.735c102.459-86.03,260.837-150.271,393.758-157.083
			c146.048-7.486,182.041,58.425,86.753,157.083h28.193c0.111-0.119,0.227-0.237,0.337-0.356
			C910.633,142.958,867.014,67.488,702.326,75.929c-4.938,0.253-9.904,0.582-14.894,0.976
			c-144.008,13.787-309.405,85.129-417.296,178.831H297.004z"/>
		
			<radialGradient id="SVGID_2_" cx="327.6504" cy="3553.9814" r="433.378" gradientTransform="matrix(0.7038 -0.0361 -0.4743 0.4808 1974.998 -1425.1099)" gradientUnits="userSpaceOnUse">
			<stop  offset="0.7204" style="stop-color:#F6EB16"/>
			<stop  offset="0.7688" style="stop-color:#EC008C"/>
			<stop  offset="0.7767" style="stop-color:#CF1F8E"/>
			<stop  offset="0.7869" style="stop-color:#B33092"/>
			<stop  offset="0.7983" style="stop-color:#993995"/>
			<stop  offset="0.8108" style="stop-color:#823E98"/>
			<stop  offset="0.8246" style="stop-color:#6E4199"/>
			<stop  offset="0.8402" style="stop-color:#5C449B"/>
			<stop  offset="0.8584" style="stop-color:#4C459C"/>
			<stop  offset="0.8809" style="stop-color:#40469D"/>
			<stop  offset="0.9124" style="stop-color:#38479D"/>
			<stop  offset="1" style="stop-color:#36479D"/>
		</radialGradient>
		<path fill="url(#SVGID_2_)" d="M664.758,125.014c129.432-6.634,165.192,48.123,86.813,130.722h25.942
			c89.482-94.888,50.027-158.089-95.09-150.651c-131.625,6.747-285.393,68.287-383.052,150.651h23.907
			C411.144,184.278,547.726,131.013,664.758,125.014z"/>
		
			<radialGradient id="SVGID_3_" cx="370.6221" cy="3581.9951" r="432.6722" gradientTransform="matrix(0.7839 -0.0402 -0.5277 0.5463 2121.3828 -1670.0964)" gradientUnits="userSpaceOnUse">
			<stop  offset="0.7204" style="stop-color:#F6EB16"/>
			<stop  offset="0.7688" style="stop-color:#EC008C"/>
			<stop  offset="0.7767" style="stop-color:#CF1F8E"/>
			<stop  offset="0.7869" style="stop-color:#B33092"/>
			<stop  offset="0.7983" style="stop-color:#993995"/>
			<stop  offset="0.8108" style="stop-color:#823E98"/>
			<stop  offset="0.8246" style="stop-color:#6E4199"/>
			<stop  offset="0.8402" style="stop-color:#5C449B"/>
			<stop  offset="0.8584" style="stop-color:#4C459C"/>
			<stop  offset="0.8809" style="stop-color:#40469D"/>
			<stop  offset="0.9124" style="stop-color:#38479D"/>
			<stop  offset="1" style="stop-color:#36479D"/>
		</radialGradient>
		<path fill="url(#SVGID_3_)" d="M690.762,98.652c-132.92,6.812-291.299,71.053-393.758,157.083h2.368
			c97.659-82.365,251.426-143.905,383.052-150.651c145.117-7.438,184.572,55.763,95.09,150.651h0.001
			C872.803,157.078,836.81,91.167,690.762,98.652z"/>
		
			<radialGradient id="SVGID_4_" cx="327.6504" cy="3553.9814" r="433.378" gradientTransform="matrix(0.7038 -0.0361 -0.4743 0.4808 1974.998 -1425.1099)" gradientUnits="userSpaceOnUse">
			<stop  offset="0.7204" style="stop-color:#F6EB16"/>
			<stop  offset="0.7688" style="stop-color:#EC008C"/>
			<stop  offset="0.7767" style="stop-color:#CF1F8E"/>
			<stop  offset="0.7869" style="stop-color:#B33092"/>
			<stop  offset="0.7983" style="stop-color:#993995"/>
			<stop  offset="0.8108" style="stop-color:#823E98"/>
			<stop  offset="0.8246" style="stop-color:#6E4199"/>
			<stop  offset="0.8402" style="stop-color:#5C449B"/>
			<stop  offset="0.8584" style="stop-color:#4C459C"/>
			<stop  offset="0.8809" style="stop-color:#40469D"/>
			<stop  offset="0.9124" style="stop-color:#38479D"/>
			<stop  offset="1" style="stop-color:#36479D"/>
		</radialGradient>
		<path fill="url(#SVGID_4_)" d="M690.762,98.652c-132.92,6.812-291.299,71.053-393.758,157.083h2.368
			c97.659-82.365,251.426-143.905,383.052-150.651c145.117-7.438,184.572,55.763,95.09,150.651h0.001
			C872.803,157.078,836.81,91.167,690.762,98.652z"/>
		
			<radialGradient id="SVGID_5_" cx="414.793" cy="3612.2324" r="433.3646" gradientTransform="matrix(0.8798 -0.0451 -0.5912 0.6355 2292.4414 -2006.9199)" gradientUnits="userSpaceOnUse">
			<stop  offset="0.7204" style="stop-color:#F6EB16"/>
			<stop  offset="0.7688" style="stop-color:#EC008C"/>
			<stop  offset="0.7767" style="stop-color:#CF1F8E"/>
			<stop  offset="0.7869" style="stop-color:#B33092"/>
			<stop  offset="0.7983" style="stop-color:#993995"/>
			<stop  offset="0.8108" style="stop-color:#823E98"/>
			<stop  offset="0.8246" style="stop-color:#6E4199"/>
			<stop  offset="0.8402" style="stop-color:#5C449B"/>
			<stop  offset="0.8584" style="stop-color:#4C459C"/>
			<stop  offset="0.8809" style="stop-color:#40469D"/>
			<stop  offset="0.9124" style="stop-color:#38479D"/>
			<stop  offset="1" style="stop-color:#36479D"/>
		</radialGradient>
		<path fill="url(#SVGID_5_)" d="M266.944,255.735C372.447,160.644,540.499,88.511,687.433,76.904
			c8.046-0.77,16.026-1.365,23.925-1.77c163.559-8.382,203.278,67.491,95.063,180.601h31.742c0.661-0.702,1.335-1.4,1.989-2.104
			c46.769-50.27,69.429-94.326,69.5-129.144c-2.267-56.128-63.817-88.149-177.457-83.248
			c-169.513,9.458-371.269,97.451-497.999,214.496H266.944z"/>
		
			<radialGradient id="SVGID_6_" cx="370.1182" cy="3581.9951" r="433.3481" gradientTransform="matrix(0.7839 -0.0402 -0.5277 0.5463 2121.3828 -1670.0964)" gradientUnits="userSpaceOnUse">
			<stop  offset="0.7204" style="stop-color:#F6EB16"/>
			<stop  offset="0.7688" style="stop-color:#EC008C"/>
			<stop  offset="0.7767" style="stop-color:#CF1F8E"/>
			<stop  offset="0.7869" style="stop-color:#B33092"/>
			<stop  offset="0.7983" style="stop-color:#993995"/>
			<stop  offset="0.8108" style="stop-color:#823E98"/>
			<stop  offset="0.8246" style="stop-color:#6E4199"/>
			<stop  offset="0.8402" style="stop-color:#5C449B"/>
			<stop  offset="0.8584" style="stop-color:#4C459C"/>
			<stop  offset="0.8809" style="stop-color:#40469D"/>
			<stop  offset="0.9124" style="stop-color:#38479D"/>
			<stop  offset="1" style="stop-color:#36479D"/>
		</radialGradient>
		<path fill="url(#SVGID_6_)" d="M711.357,75.135c-7.898,0.405-15.879,1-23.925,1.77c4.989-0.394,9.956-0.723,14.894-0.976
			c164.688-8.441,208.307,67.029,103.719,179.451c-0.11,0.119-0.226,0.237-0.337,0.356h0.713
			C914.636,142.625,874.916,66.752,711.357,75.135z"/>
		
			<radialGradient id="SVGID_7_" cx="414.793" cy="3612.2324" r="433.3646" gradientTransform="matrix(0.8798 -0.0451 -0.5912 0.6355 2292.4414 -2006.9199)" gradientUnits="userSpaceOnUse">
			<stop  offset="0.7204" style="stop-color:#F6EB16"/>
			<stop  offset="0.7688" style="stop-color:#EC008C"/>
			<stop  offset="0.7767" style="stop-color:#CF1F8E"/>
			<stop  offset="0.7869" style="stop-color:#B33092"/>
			<stop  offset="0.7983" style="stop-color:#993995"/>
			<stop  offset="0.8108" style="stop-color:#823E98"/>
			<stop  offset="0.8246" style="stop-color:#6E4199"/>
			<stop  offset="0.8402" style="stop-color:#5C449B"/>
			<stop  offset="0.8584" style="stop-color:#4C459C"/>
			<stop  offset="0.8809" style="stop-color:#40469D"/>
			<stop  offset="0.9124" style="stop-color:#38479D"/>
			<stop  offset="1" style="stop-color:#36479D"/>
		</radialGradient>
		<path fill="url(#SVGID_7_)" d="M711.357,75.135c-7.898,0.405-15.879,1-23.925,1.77c4.989-0.394,9.956-0.723,14.894-0.976
			c164.688-8.441,208.307,67.029,103.719,179.451c-0.11,0.119-0.226,0.237-0.337,0.356h0.713
			C914.636,142.625,874.916,66.752,711.357,75.135z"/>
		
			<radialGradient id="SVGID_8_" cx="441.2349" cy="3944.9043" r="0.081" gradientTransform="matrix(0.9987 -0.0512 -0.67 0.7424 2455.7666 -2369.877)" gradientUnits="userSpaceOnUse">
			<stop  offset="0.7204" style="stop-color:#F6EB16"/>
			<stop  offset="0.7688" style="stop-color:#EC008C"/>
			<stop  offset="0.7767" style="stop-color:#CF1F8E"/>
			<stop  offset="0.7869" style="stop-color:#B33092"/>
			<stop  offset="0.7983" style="stop-color:#993995"/>
			<stop  offset="0.8108" style="stop-color:#823E98"/>
			<stop  offset="0.8246" style="stop-color:#6E4199"/>
			<stop  offset="0.8402" style="stop-color:#5C449B"/>
			<stop  offset="0.8584" style="stop-color:#4C459C"/>
			<stop  offset="0.8809" style="stop-color:#40469D"/>
			<stop  offset="0.9124" style="stop-color:#38479D"/>
			<stop  offset="1" style="stop-color:#36479D"/>
		</radialGradient>
		<path fill="url(#SVGID_8_)" d="M253.451,536.229h-0.217C253.306,536.229,253.378,536.229,253.451,536.229z"/>
		
			<radialGradient id="SVGID_9_" cx="470.3379" cy="3585.7656" r="433.3616" gradientTransform="matrix(0.9987 -0.0512 -0.67 0.7424 2455.7666 -2369.877)" gradientUnits="userSpaceOnUse">
			<stop  offset="0.7204" style="stop-color:#F6EB16"/>
			<stop  offset="0.7688" style="stop-color:#EC008C"/>
			<stop  offset="0.7767" style="stop-color:#CF1F8E"/>
			<stop  offset="0.7869" style="stop-color:#B33092"/>
			<stop  offset="0.7983" style="stop-color:#993995"/>
			<stop  offset="0.8108" style="stop-color:#823E98"/>
			<stop  offset="0.8246" style="stop-color:#6E4199"/>
			<stop  offset="0.8402" style="stop-color:#5C449B"/>
			<stop  offset="0.8584" style="stop-color:#4C459C"/>
			<stop  offset="0.8809" style="stop-color:#40469D"/>
			<stop  offset="0.9124" style="stop-color:#38479D"/>
			<stop  offset="1" style="stop-color:#36479D"/>
		</radialGradient>
		<path fill="url(#SVGID_9_)" d="M727.588,41.457c1.546-0.079,3.081-0.151,4.607-0.217c0.848-0.047,1.699-0.106,2.545-0.15
			c114.527-5.871,175.027,26.369,174.912,83.397c1.386,34.325-19.397,77.666-64.004,127.092c-1.255,1.39-2.537,2.772-3.814,4.156
			h36.898c1.893-2.042,3.777-4.086,5.631-6.14C1024.176,94.676,973.691-9.976,764.32,0.755
			c-195.223,10.006-428.746,115.219-572.758,254.98h37.094C351.882,138.557,554.615,50.322,727.588,41.457z"/>
		
			<radialGradient id="SVGID_10_" cx="414.793" cy="3612.2324" r="433.3646" gradientTransform="matrix(0.8798 -0.0451 -0.5912 0.6355 2292.4414 -2006.9199)" gradientUnits="userSpaceOnUse">
			<stop  offset="0.7204" style="stop-color:#F6EB16"/>
			<stop  offset="0.7688" style="stop-color:#EC008C"/>
			<stop  offset="0.7767" style="stop-color:#CF1F8E"/>
			<stop  offset="0.7869" style="stop-color:#B33092"/>
			<stop  offset="0.7983" style="stop-color:#993995"/>
			<stop  offset="0.8108" style="stop-color:#823E98"/>
			<stop  offset="0.8246" style="stop-color:#6E4199"/>
			<stop  offset="0.8402" style="stop-color:#5C449B"/>
			<stop  offset="0.8584" style="stop-color:#4C459C"/>
			<stop  offset="0.8809" style="stop-color:#40469D"/>
			<stop  offset="0.9124" style="stop-color:#38479D"/>
			<stop  offset="1" style="stop-color:#36479D"/>
		</radialGradient>
		<path fill="url(#SVGID_10_)" d="M909.652,124.487c0.115-57.029-60.385-89.268-174.912-83.397c-0.846,0.043-1.697,0.103-2.545,0.15
			C845.835,36.338,907.386,68.359,909.652,124.487z"/>
		
			<radialGradient id="SVGID_11_" cx="470.3379" cy="3585.7656" r="433.3616" gradientTransform="matrix(0.9987 -0.0512 -0.67 0.7424 2455.7666 -2369.877)" gradientUnits="userSpaceOnUse">
			<stop  offset="0.7204" style="stop-color:#F6EB16"/>
			<stop  offset="0.7688" style="stop-color:#EC008C"/>
			<stop  offset="0.7767" style="stop-color:#CF1F8E"/>
			<stop  offset="0.7869" style="stop-color:#B33092"/>
			<stop  offset="0.7983" style="stop-color:#993995"/>
			<stop  offset="0.8108" style="stop-color:#823E98"/>
			<stop  offset="0.8246" style="stop-color:#6E4199"/>
			<stop  offset="0.8402" style="stop-color:#5C449B"/>
			<stop  offset="0.8584" style="stop-color:#4C459C"/>
			<stop  offset="0.8809" style="stop-color:#40469D"/>
			<stop  offset="0.9124" style="stop-color:#38479D"/>
			<stop  offset="1" style="stop-color:#36479D"/>
		</radialGradient>
		<path fill="url(#SVGID_11_)" d="M909.652,124.487c0.115-57.029-60.385-89.268-174.912-83.397c-0.846,0.043-1.697,0.103-2.545,0.15
			C845.835,36.338,907.386,68.359,909.652,124.487z"/>
	</g>
</g>
</svg>
