<?xml version="1.0" encoding="utf-8"?>
<!-- Generator: Adobe Illustrator 16.0.0, SVG Export Plug-In . SVG Version: 6.00 Build 0)  -->
<!DOCTYPE svg PUBLIC "-//W3C//DTD SVG 1.1//EN" "http://www.w3.org/Graphics/SVG/1.1/DTD/svg11.dtd">
<svg version="1.1" id="Layer_1" xmlns="http://www.w3.org/2000/svg" xmlns:xlink="http://www.w3.org/1999/xlink" x="0px" y="0px"
	 width="1028.943px" height="536.229px" viewBox="0 0 1028.943 536.229" enable-background="new 0 0 1028.943 536.229"
	 xml:space="preserve">
<g>
	<g>
		<path fill="none" d="M676.218,336.075c37.753-23.231,71.391-49.331,98.3-77.185c1.016-1.051,1.994-2.093,2.979-3.137
			c-0.969,1.003-1.928,2.003-2.924,3.013C747.141,286.575,713.562,312.688,676.218,336.075z"/>
		<path fill="none" d="M237.605,284.515c-12.023,12.924-22.064,25.352-30.211,37.228c8.404-11.311,18.486-23.107,30.301-35.337
			c10.206-10.564,21.18-20.911,32.816-30.999h-3.203C256.762,264.894,246.824,274.605,237.605,284.515z"/>
		<path fill="none" d="M526.412,451.713c122.707-42.869,239.547-113.662,315.725-196.307h-3.662
			C761.556,337.327,646.553,407.835,526.412,451.713z"/>
		<path fill="none" d="M769.223,290.785c-37.348,31.945-81.345,61.224-128.834,86.424
			C688.176,352.173,732.229,322.869,769.223,290.785z"/>
		<path fill="none" d="M292.6,283.47c-83.911,85.063-49.198,141.899,82.533,135.148c131.732-6.752,288.25-73.391,372.158-158.453
			c1.576-1.598,3.096-3.182,4.589-4.759H323.689C312.496,264.486,302.08,273.859,292.6,283.47z"/>
		<path fill="none" d="M200.412,284.65c-32.026,35.487-51.768,67.835-59.846,95.963c9.792-27.815,30.598-59.598,62.93-94.351
			c9.751-10.481,20.13-20.776,31.062-30.857H229C218.924,264.971,209.369,274.726,200.412,284.65z"/>
		
			<radialGradient id="SVGID_1_" cx="369.688" cy="3581.9951" r="433.6128" gradientTransform="matrix(0.7839 -0.0402 -0.5277 0.5463 2121.3828 -1670.0964)" gradientUnits="userSpaceOnUse">
			<stop  offset="0.7204" style="stop-color:#F6EB16"/>
			<stop  offset="0.7688" style="stop-color:#EC008C"/>
			<stop  offset="0.7767" style="stop-color:#CF1F8E"/>
			<stop  offset="0.7869" style="stop-color:#B33092"/>
			<stop  offset="0.7983" style="stop-color:#993995"/>
			<stop  offset="0.8108" style="stop-color:#823E98"/>
			<stop  offset="0.8246" style="stop-color:#6E4199"/>
			<stop  offset="0.8402" style="stop-color:#5C449B"/>
			<stop  offset="0.8584" style="stop-color:#4C459C"/>
			<stop  offset="0.8809" style="stop-color:#40469D"/>
			<stop  offset="0.9124" style="stop-color:#38479D"/>
			<stop  offset="1" style="stop-color:#36479D"/>
		</radialGradient>
		<path fill="url(#SVGID_1_)" d="M806.02,255.406h-28.186c-0.111,0.116-0.226,0.232-0.338,0.348
			c-0.984,1.043-1.963,2.086-2.979,3.137c-26.909,27.854-60.547,53.953-98.3,77.185C578.821,397.074,455.78,439.514,349.129,444.98
			c-147.539,7.563-182.79-59.776-83.813-160.112c9.924-10.06,20.663-19.894,32.082-29.462h-26.886
			c-11.637,10.088-22.611,20.435-32.816,30.999c-11.815,12.23-21.897,24.026-30.301,35.337
			c-62.726,91.429-11.826,149.69,133.93,142.221c97.313-4.988,205.362-37.663,299.064-86.754
			c47.489-25.2,91.486-54.479,128.834-86.424C782.438,279.323,794.758,267.509,806.02,255.406z"/>
		
			<radialGradient id="SVGID_2_" cx="327.6504" cy="3553.9814" r="433.378" gradientTransform="matrix(0.7038 -0.0361 -0.4743 0.4808 1974.998 -1425.1099)" gradientUnits="userSpaceOnUse">
			<stop  offset="0.7204" style="stop-color:#F6EB16"/>
			<stop  offset="0.7688" style="stop-color:#EC008C"/>
			<stop  offset="0.7767" style="stop-color:#CF1F8E"/>
			<stop  offset="0.7869" style="stop-color:#B33092"/>
			<stop  offset="0.7983" style="stop-color:#993995"/>
			<stop  offset="0.8108" style="stop-color:#823E98"/>
			<stop  offset="0.8246" style="stop-color:#6E4199"/>
			<stop  offset="0.8402" style="stop-color:#5C449B"/>
			<stop  offset="0.8584" style="stop-color:#4C459C"/>
			<stop  offset="0.8809" style="stop-color:#40469D"/>
			<stop  offset="0.9124" style="stop-color:#38479D"/>
			<stop  offset="1" style="stop-color:#36479D"/>
		</radialGradient>
		<path fill="url(#SVGID_2_)" d="M751.88,255.406c-1.493,1.578-3.013,3.162-4.589,4.759
			c-83.908,85.062-240.426,151.701-372.158,158.453c-131.731,6.751-166.443-50.085-82.533-135.148
			c9.48-9.611,19.896-18.983,31.089-28.064h-23.927c-11.351,9.552-21.958,19.381-31.678,29.442
			c-93.362,96.64-54.629,161.322,92.092,153.801c104.433-5.352,222.808-45.201,316.041-102.573
			c37.344-23.388,70.923-49.5,98.354-77.309c0.996-1.009,1.955-2.01,2.924-3.013c0.109-0.116,0.222-0.232,0.331-0.348H751.88z"/>
		
			<radialGradient id="SVGID_3_" cx="370.1182" cy="3581.9951" r="433.3481" gradientTransform="matrix(0.7839 -0.0402 -0.5277 0.5463 2121.3828 -1670.0964)" gradientUnits="userSpaceOnUse">
			<stop  offset="0.7204" style="stop-color:#F6EB16"/>
			<stop  offset="0.7688" style="stop-color:#EC008C"/>
			<stop  offset="0.7767" style="stop-color:#CF1F8E"/>
			<stop  offset="0.7869" style="stop-color:#B33092"/>
			<stop  offset="0.7983" style="stop-color:#993995"/>
			<stop  offset="0.8108" style="stop-color:#823E98"/>
			<stop  offset="0.8246" style="stop-color:#6E4199"/>
			<stop  offset="0.8402" style="stop-color:#5C449B"/>
			<stop  offset="0.8584" style="stop-color:#4C459C"/>
			<stop  offset="0.8809" style="stop-color:#40469D"/>
			<stop  offset="0.9124" style="stop-color:#38479D"/>
			<stop  offset="1" style="stop-color:#36479D"/>
		</radialGradient>
		<path fill="url(#SVGID_3_)" d="M349.129,444.98c106.651-5.467,229.692-47.906,327.089-108.905
			c-93.233,57.372-211.608,97.222-316.041,102.573c-146.722,7.521-185.454-57.161-92.092-153.801
			c9.719-10.061,20.327-19.89,31.678-29.442h-2.364c-11.419,9.568-22.158,19.402-32.082,29.462
			C166.339,385.205,201.59,452.544,349.129,444.98z"/>
		
			<radialGradient id="SVGID_4_" cx="327.6504" cy="3553.9814" r="433.378" gradientTransform="matrix(0.7038 -0.0361 -0.4743 0.4808 1974.998 -1425.1099)" gradientUnits="userSpaceOnUse">
			<stop  offset="0.7204" style="stop-color:#F6EB16"/>
			<stop  offset="0.7688" style="stop-color:#EC008C"/>
			<stop  offset="0.7767" style="stop-color:#CF1F8E"/>
			<stop  offset="0.7869" style="stop-color:#B33092"/>
			<stop  offset="0.7983" style="stop-color:#993995"/>
			<stop  offset="0.8108" style="stop-color:#823E98"/>
			<stop  offset="0.8246" style="stop-color:#6E4199"/>
			<stop  offset="0.8402" style="stop-color:#5C449B"/>
			<stop  offset="0.8584" style="stop-color:#4C459C"/>
			<stop  offset="0.8809" style="stop-color:#40469D"/>
			<stop  offset="0.9124" style="stop-color:#38479D"/>
			<stop  offset="1" style="stop-color:#36479D"/>
		</radialGradient>
		<path fill="url(#SVGID_4_)" d="M349.129,444.98c106.651-5.467,229.692-47.906,327.089-108.905
			c-93.233,57.372-211.608,97.222-316.041,102.573c-146.722,7.521-185.454-57.161-92.092-153.801
			c9.719-10.061,20.327-19.89,31.678-29.442h-2.364c-11.419,9.568-22.158,19.402-32.082,29.462
			C166.339,385.205,201.59,452.544,349.129,444.98z"/>
		
			<radialGradient id="SVGID_5_" cx="693.0801" cy="3575.9443" r="0.2258" gradientTransform="matrix(0.7839 -0.0402 -0.5277 0.5463 2121.3828 -1670.0964)" gradientUnits="userSpaceOnUse">
			<stop  offset="0.7204" style="stop-color:#F6EB16"/>
			<stop  offset="0.7688" style="stop-color:#EC008C"/>
			<stop  offset="0.7767" style="stop-color:#CF1F8E"/>
			<stop  offset="0.7869" style="stop-color:#B33092"/>
			<stop  offset="0.7983" style="stop-color:#993995"/>
			<stop  offset="0.8108" style="stop-color:#823E98"/>
			<stop  offset="0.8246" style="stop-color:#6E4199"/>
			<stop  offset="0.8402" style="stop-color:#5C449B"/>
			<stop  offset="0.8584" style="stop-color:#4C459C"/>
			<stop  offset="0.8809" style="stop-color:#40469D"/>
			<stop  offset="0.9124" style="stop-color:#38479D"/>
			<stop  offset="1" style="stop-color:#36479D"/>
		</radialGradient>
		<path fill="url(#SVGID_5_)" d="M777.496,255.754c0.112-0.116,0.227-0.232,0.338-0.348h-0.007
			C777.718,255.521,777.605,255.638,777.496,255.754z"/>
		
			<radialGradient id="SVGID_6_" cx="689.375" cy="3547.3711" r="0.257" gradientTransform="matrix(0.7038 -0.0361 -0.4743 0.4808 1974.998 -1425.1099)" gradientUnits="userSpaceOnUse">
			<stop  offset="0.7204" style="stop-color:#F6EB16"/>
			<stop  offset="0.7688" style="stop-color:#EC008C"/>
			<stop  offset="0.7767" style="stop-color:#CF1F8E"/>
			<stop  offset="0.7869" style="stop-color:#B33092"/>
			<stop  offset="0.7983" style="stop-color:#993995"/>
			<stop  offset="0.8108" style="stop-color:#823E98"/>
			<stop  offset="0.8246" style="stop-color:#6E4199"/>
			<stop  offset="0.8402" style="stop-color:#5C449B"/>
			<stop  offset="0.8584" style="stop-color:#4C459C"/>
			<stop  offset="0.8809" style="stop-color:#40469D"/>
			<stop  offset="0.9124" style="stop-color:#38479D"/>
			<stop  offset="1" style="stop-color:#36479D"/>
		</radialGradient>
		<path fill="url(#SVGID_6_)" d="M777.496,255.754c0.112-0.116,0.227-0.232,0.338-0.348h-0.007
			C777.718,255.521,777.605,255.638,777.496,255.754z"/>
		
			<radialGradient id="SVGID_7_" cx="414.7754" cy="3612.2324" r="433.3753" gradientTransform="matrix(0.8798 -0.0451 -0.5912 0.6355 2292.4414 -2006.9199)" gradientUnits="userSpaceOnUse">
			<stop  offset="0.7204" style="stop-color:#F6EB16"/>
			<stop  offset="0.7688" style="stop-color:#EC008C"/>
			<stop  offset="0.7767" style="stop-color:#CF1F8E"/>
			<stop  offset="0.7869" style="stop-color:#B33092"/>
			<stop  offset="0.7983" style="stop-color:#993995"/>
			<stop  offset="0.8108" style="stop-color:#823E98"/>
			<stop  offset="0.8246" style="stop-color:#6E4199"/>
			<stop  offset="0.8402" style="stop-color:#5C449B"/>
			<stop  offset="0.8584" style="stop-color:#4C459C"/>
			<stop  offset="0.8809" style="stop-color:#40469D"/>
			<stop  offset="0.9124" style="stop-color:#38479D"/>
			<stop  offset="1" style="stop-color:#36479D"/>
		</radialGradient>
		<path fill="url(#SVGID_7_)" d="M838.475,255.406h-31.74c-0.614,0.643-1.208,1.282-1.832,1.927
			c-11.036,11.424-22.979,22.589-35.68,33.452c-36.993,32.084-81.047,61.388-128.834,86.424
			c-97.511,51.744-209.708,86.295-309.144,91.393c-146.699,7.52-193.781-52.743-123.851-146.859
			c8.147-11.875,18.188-24.304,30.211-37.228c9.219-9.909,19.156-19.621,29.703-29.109h-32.75
			c-10.932,10.081-21.311,20.376-31.062,30.857c-32.332,34.753-53.139,66.536-62.93,94.351
			c-21.82,75.973,41.481,121.152,177.907,114.16c66.964-3.432,138.39-18.763,207.938-43.061
			C646.553,407.835,761.556,337.327,838.475,255.406z"/>
		
			<radialGradient id="SVGID_8_" cx="370.1182" cy="3581.9951" r="433.3481" gradientTransform="matrix(0.7839 -0.0402 -0.5277 0.5463 2121.3828 -1670.0964)" gradientUnits="userSpaceOnUse">
			<stop  offset="0.7204" style="stop-color:#F6EB16"/>
			<stop  offset="0.7688" style="stop-color:#EC008C"/>
			<stop  offset="0.7767" style="stop-color:#CF1F8E"/>
			<stop  offset="0.7869" style="stop-color:#B33092"/>
			<stop  offset="0.7983" style="stop-color:#993995"/>
			<stop  offset="0.8108" style="stop-color:#823E98"/>
			<stop  offset="0.8246" style="stop-color:#6E4199"/>
			<stop  offset="0.8402" style="stop-color:#5C449B"/>
			<stop  offset="0.8584" style="stop-color:#4C459C"/>
			<stop  offset="0.8809" style="stop-color:#40469D"/>
			<stop  offset="0.9124" style="stop-color:#38479D"/>
			<stop  offset="1" style="stop-color:#36479D"/>
		</radialGradient>
		<path fill="url(#SVGID_8_)" d="M769.223,290.785c12.7-10.863,24.644-22.028,35.68-33.452c0.624-0.646,1.218-1.284,1.832-1.927
			h-0.715C794.758,267.509,782.438,279.323,769.223,290.785z"/>
		
			<radialGradient id="SVGID_9_" cx="414.793" cy="3612.2324" r="433.3646" gradientTransform="matrix(0.8798 -0.0451 -0.5912 0.6355 2292.4414 -2006.9199)" gradientUnits="userSpaceOnUse">
			<stop  offset="0.7204" style="stop-color:#F6EB16"/>
			<stop  offset="0.7688" style="stop-color:#EC008C"/>
			<stop  offset="0.7767" style="stop-color:#CF1F8E"/>
			<stop  offset="0.7869" style="stop-color:#B33092"/>
			<stop  offset="0.7983" style="stop-color:#993995"/>
			<stop  offset="0.8108" style="stop-color:#823E98"/>
			<stop  offset="0.8246" style="stop-color:#6E4199"/>
			<stop  offset="0.8402" style="stop-color:#5C449B"/>
			<stop  offset="0.8584" style="stop-color:#4C459C"/>
			<stop  offset="0.8809" style="stop-color:#40469D"/>
			<stop  offset="0.9124" style="stop-color:#38479D"/>
			<stop  offset="1" style="stop-color:#36479D"/>
		</radialGradient>
		<path fill="url(#SVGID_9_)" d="M769.223,290.785c12.7-10.863,24.644-22.028,35.68-33.452c0.624-0.646,1.218-1.284,1.832-1.927
			h-0.715C794.758,267.509,782.438,279.323,769.223,290.785z"/>
		
			<radialGradient id="SVGID_10_" cx="370.1182" cy="3581.9951" r="433.3481" gradientTransform="matrix(0.7839 -0.0402 -0.5277 0.5463 2121.3828 -1670.0964)" gradientUnits="userSpaceOnUse">
			<stop  offset="0.7204" style="stop-color:#F6EB16"/>
			<stop  offset="0.7688" style="stop-color:#EC008C"/>
			<stop  offset="0.7767" style="stop-color:#CF1F8E"/>
			<stop  offset="0.7869" style="stop-color:#B33092"/>
			<stop  offset="0.7983" style="stop-color:#993995"/>
			<stop  offset="0.8108" style="stop-color:#823E98"/>
			<stop  offset="0.8246" style="stop-color:#6E4199"/>
			<stop  offset="0.8402" style="stop-color:#5C449B"/>
			<stop  offset="0.8584" style="stop-color:#4C459C"/>
			<stop  offset="0.8809" style="stop-color:#40469D"/>
			<stop  offset="0.9124" style="stop-color:#38479D"/>
			<stop  offset="1" style="stop-color:#36479D"/>
		</radialGradient>
		<path fill="url(#SVGID_10_)" d="M207.395,321.742c-69.93,94.117-22.848,154.379,123.851,146.859
			c99.436-5.098,211.633-39.648,309.144-91.393c-93.702,49.091-201.751,81.766-299.064,86.754
			C195.569,471.433,144.669,413.171,207.395,321.742z"/>
		
			<radialGradient id="SVGID_11_" cx="414.793" cy="3612.2324" r="433.3646" gradientTransform="matrix(0.8798 -0.0451 -0.5912 0.6355 2292.4414 -2006.9199)" gradientUnits="userSpaceOnUse">
			<stop  offset="0.7204" style="stop-color:#F6EB16"/>
			<stop  offset="0.7688" style="stop-color:#EC008C"/>
			<stop  offset="0.7767" style="stop-color:#CF1F8E"/>
			<stop  offset="0.7869" style="stop-color:#B33092"/>
			<stop  offset="0.7983" style="stop-color:#993995"/>
			<stop  offset="0.8108" style="stop-color:#823E98"/>
			<stop  offset="0.8246" style="stop-color:#6E4199"/>
			<stop  offset="0.8402" style="stop-color:#5C449B"/>
			<stop  offset="0.8584" style="stop-color:#4C459C"/>
			<stop  offset="0.8809" style="stop-color:#40469D"/>
			<stop  offset="0.9124" style="stop-color:#38479D"/>
			<stop  offset="1" style="stop-color:#36479D"/>
		</radialGradient>
		<path fill="url(#SVGID_11_)" d="M207.395,321.742c-69.93,94.117-22.848,154.379,123.851,146.859
			c99.436-5.098,211.633-39.648,309.144-91.393c-93.702,49.091-201.751,81.766-299.064,86.754
			C195.569,471.433,144.669,413.171,207.395,321.742z"/>
		
			<radialGradient id="SVGID_12_" cx="470.293" cy="3585.7656" r="433.3886" gradientTransform="matrix(0.9987 -0.0512 -0.67 0.7424 2455.7666 -2369.877)" gradientUnits="userSpaceOnUse">
			<stop  offset="0.7204" style="stop-color:#F6EB16"/>
			<stop  offset="0.7688" style="stop-color:#EC008C"/>
			<stop  offset="0.7767" style="stop-color:#CF1F8E"/>
			<stop  offset="0.7869" style="stop-color:#B33092"/>
			<stop  offset="0.7983" style="stop-color:#993995"/>
			<stop  offset="0.8108" style="stop-color:#823E98"/>
			<stop  offset="0.8246" style="stop-color:#6E4199"/>
			<stop  offset="0.8402" style="stop-color:#5C449B"/>
			<stop  offset="0.8584" style="stop-color:#4C459C"/>
			<stop  offset="0.8809" style="stop-color:#40469D"/>
			<stop  offset="0.9124" style="stop-color:#38479D"/>
			<stop  offset="1" style="stop-color:#36479D"/>
		</radialGradient>
		<path fill="url(#SVGID_12_)" d="M526.412,451.713c-73.078,26.689-148.051,43.531-217.5,47.091
			c-136.11,6.977-195.916-39.871-168.345-118.19c8.078-28.128,27.819-60.476,59.846-95.963c8.957-9.924,18.512-19.68,28.587-29.245
			h-37.096c-10.56,10.234-20.658,20.647-30.208,31.229C21.884,441.553,72.371,546.206,281.741,535.474
			c206.743-10.596,456.443-127.965,597.293-280.068h-36.897C765.959,338.051,649.118,408.844,526.412,451.713z"/>
		
			<radialGradient id="SVGID_13_" cx="414.793" cy="3612.2324" r="433.3646" gradientTransform="matrix(0.8798 -0.0451 -0.5912 0.6355 2292.4414 -2006.9199)" gradientUnits="userSpaceOnUse">
			<stop  offset="0.7204" style="stop-color:#F6EB16"/>
			<stop  offset="0.7688" style="stop-color:#EC008C"/>
			<stop  offset="0.7767" style="stop-color:#CF1F8E"/>
			<stop  offset="0.7869" style="stop-color:#B33092"/>
			<stop  offset="0.7983" style="stop-color:#993995"/>
			<stop  offset="0.8108" style="stop-color:#823E98"/>
			<stop  offset="0.8246" style="stop-color:#6E4199"/>
			<stop  offset="0.8402" style="stop-color:#5C449B"/>
			<stop  offset="0.8584" style="stop-color:#4C459C"/>
			<stop  offset="0.8809" style="stop-color:#40469D"/>
			<stop  offset="0.9124" style="stop-color:#38479D"/>
			<stop  offset="1" style="stop-color:#36479D"/>
		</radialGradient>
		<path fill="url(#SVGID_13_)" d="M140.566,380.614c-27.571,78.319,32.234,125.167,168.345,118.19
			c69.45-3.56,144.422-20.401,217.5-47.091c-69.548,24.298-140.974,39.629-207.938,43.061
			C182.047,501.766,118.747,456.587,140.566,380.614z"/>
		
			<radialGradient id="SVGID_14_" cx="470.3379" cy="3585.7656" r="433.3616" gradientTransform="matrix(0.9987 -0.0512 -0.67 0.7424 2455.7666 -2369.877)" gradientUnits="userSpaceOnUse">
			<stop  offset="0.7204" style="stop-color:#F6EB16"/>
			<stop  offset="0.7688" style="stop-color:#EC008C"/>
			<stop  offset="0.7767" style="stop-color:#CF1F8E"/>
			<stop  offset="0.7869" style="stop-color:#B33092"/>
			<stop  offset="0.7983" style="stop-color:#993995"/>
			<stop  offset="0.8108" style="stop-color:#823E98"/>
			<stop  offset="0.8246" style="stop-color:#6E4199"/>
			<stop  offset="0.8402" style="stop-color:#5C449B"/>
			<stop  offset="0.8584" style="stop-color:#4C459C"/>
			<stop  offset="0.8809" style="stop-color:#40469D"/>
			<stop  offset="0.9124" style="stop-color:#38479D"/>
			<stop  offset="1" style="stop-color:#36479D"/>
		</radialGradient>
		<path fill="url(#SVGID_14_)" d="M140.566,380.614c-27.571,78.319,32.234,125.167,168.345,118.19
			c69.45-3.56,144.422-20.401,217.5-47.091c-69.548,24.298-140.974,39.629-207.938,43.061
			C182.047,501.766,118.747,456.587,140.566,380.614z"/>
	</g>
	<g>
		<path d="M188.977,326.519c5.833-9.504,59.691-96.906,78.552-125.42h1.945c23.332,33.732,75.636,112.562,83.803,123.185
			l-38.499,21.804l-17.499-28.886l-58.526,3.167c-1.556,2.61-8.556,17.145-12.833,25.905L188.977,326.519z M284.057,291.111
			c-5.444-10.622-12.833-23.854-16.334-31.494c-4.666,8.945-11.471,22.736-16.526,33.172L284.057,291.111z"/>
		<path d="M509.096,339.287c-6.76,0-74.54-1.878-84.303-1.878c0.563-9.951,0.563-50.131,0.563-54.449V257.8
			c0-3.003-0.375-48.253-0.563-53.698c10.514,0,73.599-2.44,80.547-3.003l0.751,30.98c-6.947,0-36.425,0.938-39.804,0.938v24.408
			c3.755,0,25.348-0.939,33.608-1.689l0.563,30.041c-5.069,0-30.041-0.751-34.171-0.751v22.342c4.882,0,33.233,0.375,42.058-0.375
			L509.096,339.287z"/>
		<path d="M133.042,346.274c0.19-8.197,0.572-54.139,0.572-67.674v-20.968c0-4.386-0.572-43.845-0.572-46.706
			c36.41,0,59.667,0.954,75.488,4.766c19.063,4.767,35.838,16.014,35.838,37.554c0,24.782-23.066,51.661-69.198,59.287v5.146
			c0,3.812,0,24.591,0.381,28.594H133.042z M175.171,285.654c11.056-1.716,25.926-11.247,25.926-27.07
			c0-10.675-5.53-19.443-25.926-20.968V285.654z"/>
		<path d="M426.703,351.399c-6.772-0.088-13.734-0.202-22.698-1.337c-62.563-7.92-81.643-42.438-78.433-67.792
			c3.976-31.409,37.592-65.795,105.169-71.465l3.794,37.391c-41.156,2.094-59.574,17.45-61.825,35.236
			c-1.844,14.568,12.67,28.517,38.039,31.728c7.629,0.966,13.804,1.17,18.43,1.372L426.703,351.399z"/>
		<path d="M37.447,325.632c22.697,0.702,47.5-5.616,47.5-16.614c0-4.679-3.979-7.488-22.931-18.252
			c-14.741-8.422-31.823-20.122-31.823-39.776c0-26.208,34.864-54.286,94.062-59.433l6.317,39.074
			c-29.248,0-43.989,4.447-43.989,14.041c0,5.615,7.488,9.124,22.697,16.612c12.403,6.085,32.525,16.613,32.525,37.672
			c0,25.739-26.908,58.498-98.041,66.686L37.447,325.632z"/>
		<g>
			
				<radialGradient id="SVGID_15_" cx="255.3989" cy="255.4277" r="75.8703" gradientTransform="matrix(1.2031 0 0 1.0027 -60.46 -0.7114)" gradientUnits="userSpaceOnUse">
				<stop  offset="0" style="stop-color:#F47852"/>
				<stop  offset="0.2366" style="stop-color:#F58348"/>
				<stop  offset="0.5699" style="stop-color:#EEC12B"/>
				<stop  offset="1" style="stop-color:#E2E41D"/>
			</radialGradient>
			<path fill="url(#SVGID_15_)" d="M159.577,311.416l0.78-1.31c0.976-1.646,3.246-5.531,6.447-11.013
				c16.923-28.978,56.555-96.841,73.499-122.15l0.564-0.842h6.485l0.567,0.831c13.192,19.347,34.165,52.025,52.671,80.854
				c15.379,23.961,28.66,44.654,32.482,49.864l0.97,1.321l-43.869,25.452l-1.033-1.657c-3.528-5.668-8.613-14.426-12.326-20.82
				c-1.979-3.406-3.743-6.447-4.69-8.017l-56.299,2.898c-1.226,2.428-4.231,8.872-7.152,15.133
				c-1.795,3.844-3.611,7.736-5.101,10.885l-0.882,1.865L159.577,311.416z M240.896,250.178
				c-3.621,7.403-7.675,15.696-11.113,23.034l27.211-1.342c-2.388-4.851-5.013-9.888-7.562-14.779
				c-2.224-4.261-4.355-8.352-6.104-11.894C242.552,246.79,241.736,248.458,240.896,250.178z"/>
			<path fill="#FFFFFF" d="M244.941,182.228c23.332,33.732,75.636,112.562,83.803,123.185l-38.499,21.804l-17.499-28.886
				l-58.526,3.167c-1.556,2.61-8.556,17.145-12.833,25.905l-36.943-19.755c5.833-9.503,59.691-96.906,78.552-125.42H244.941
				 M226.664,273.917l32.86-1.678c-5.444-10.622-12.833-23.854-16.334-31.494C238.524,249.69,231.719,263.482,226.664,273.917
				 M247.909,176.566h-2.968h-1.945h-3.043l-1.679,2.538c-18.095,27.357-69.319,110.372-78.655,125.582l-3.143,5.121l5.298,2.833
				l36.943,19.754l5.18,2.77l2.578-5.277l2.753-5.656c2.82-5.797,6.437-13.235,8.484-17.252l51.95-2.812l15.74,25.982l2.849,4.701
				l4.784-2.709l38.499-21.803l5.67-3.211l-3.971-5.166c-4.484-5.833-22.917-33.202-42.434-62.179
				c-15.225-22.606-30.969-45.981-41.202-60.776L247.909,176.566L247.909,176.566z M235.957,267.774
				c2.337-4.765,4.83-9.799,7.179-14.473c1.464,2.801,3.056,5.791,4.685,8.852c0.865,1.625,1.736,3.261,2.595,4.883L235.957,267.774
				L235.957,267.774z"/>
		</g>
		<g>
			<radialGradient id="SVGID_16_" cx="442.3623" cy="251.2041" r="60.0992" gradientUnits="userSpaceOnUse">
				<stop  offset="0" style="stop-color:#F47852"/>
				<stop  offset="0.2366" style="stop-color:#F58348"/>
				<stop  offset="0.5699" style="stop-color:#EEC12B"/>
				<stop  offset="1" style="stop-color:#E2E41D"/>
			</radialGradient>
			<path fill="url(#SVGID_16_)" d="M484.563,323.246c-3.105,0-18.298-0.376-35.888-0.811c-20.21-0.5-43.119-1.067-48.414-1.067
				h-2.997l0.17-2.991c0.413-7.277,0.56-32.816,0.56-54.289v-25.159c0-3.83-0.381-48.377-0.562-53.6l-0.102-2.928h2.93
				c10.394,0,73.341-2.429,80.318-2.995l2.985-0.244l0.894,36.876h-2.901c-4.052,0-16.064,0.328-25.717,0.592
				c-4.528,0.123-8.604,0.236-11.255,0.296v18.733c7.043-0.218,23.401-0.968,30.52-1.614l3.03-0.274l0.674,35.965h-2.884
				c-2.676,0-10.869-0.208-18.644-0.406c-4.906-0.125-9.644-0.247-12.696-0.306v16.658l1.591,0.009
				c3.826,0.027,9.371,0.068,15.128,0.068c11.195,0,18.687-0.155,22.268-0.458l3-0.256l0.888,38.201H484.563z"/>
			<path fill="#FFFFFF" d="M480.808,182.228l0.751,30.98c-6.947,0-36.424,0.938-39.804,0.938v24.408
				c3.755,0,25.348-0.939,33.608-1.688l0.563,30.041c-5.069,0-30.041-0.751-34.171-0.751v22.342c2.441,0,10.75,0.094,19.55,0.094
				c8.801,0,18.095-0.094,22.507-0.469l0.751,32.294c-6.759,0-74.54-1.878-84.302-1.878c0.563-9.951,0.563-50.131,0.563-54.449
				v-25.159c0-3.003-0.375-48.253-0.563-53.698C410.775,185.231,473.86,182.791,480.808,182.228 M486.322,176.101l-5.972,0.484
				c-6.958,0.564-69.728,2.985-80.088,2.985h-5.86l0.202,5.856c0.18,5.211,0.56,49.679,0.56,53.503v25.159
				c0,21.435-0.146,46.911-0.555,54.129l-0.338,5.981h5.991c5.259,0,28.148,0.566,48.343,1.066
				c17.61,0.436,32.819,0.812,35.959,0.812h5.794l-0.135-5.793l-0.751-32.294l-0.14-6.02l-6,0.511
				c-3.501,0.298-10.912,0.449-22.027,0.449c-5.163,0-10.157-0.032-13.889-0.059v-10.952c2.845,0.066,6.35,0.155,9.795,0.243
				c7.855,0.2,15.978,0.406,18.714,0.406h5.769l-0.108-5.768l-0.563-30.041l-0.114-6.082l-6.058,0.55
				c-6.068,0.551-19.531,1.204-27.435,1.502v-13.041c2.36-0.061,5.277-0.141,8.503-0.229c9.634-0.263,21.624-0.591,25.639-0.591h5.8
				l-0.141-5.798l-0.751-30.98L486.322,176.101L486.322,176.101z"/>
		</g>
		<g>
			<radialGradient id="SVGID_17_" cx="164.1396" cy="259.7295" r="64.7934" gradientUnits="userSpaceOnUse">
				<stop  offset="0" style="stop-color:#F47852"/>
				<stop  offset="0.2366" style="stop-color:#F58348"/>
				<stop  offset="0.5699" style="stop-color:#EEC12B"/>
				<stop  offset="1" style="stop-color:#E2E41D"/>
			</radialGradient>
			<path fill="url(#SVGID_17_)" d="M105.612,330.234l0.066-2.896c0.188-8.008,0.573-53.501,0.573-67.608v-20.968
				c0-2.423-0.175-15.567-0.332-27.312c-0.127-9.515-0.241-18.113-0.241-19.394v-2.831h2.831c34.604,0,59.412,0.811,76.153,4.845
				c24.516,6.129,38.005,20.441,38.005,40.305c0,24.608-21.421,52.977-69.198,61.668v2.767c0,15.542,0.134,25.867,0.369,28.325
				l0.295,3.1H105.612z M153.47,263.255c9.303-2.685,20.264-10.847,20.264-23.542c0-7.245-2.383-15.683-20.264-17.851V263.255z"/>
			<path fill="#FFFFFF" d="M108.51,192.055c36.41,0,59.667,0.954,75.488,4.766c19.063,4.767,35.838,16.014,35.838,37.554
				c0,24.782-23.066,51.662-69.198,59.287v5.147c0,3.812,0,24.591,0.381,28.594h-42.51c0.19-8.198,0.572-54.139,0.572-67.674
				v-20.968C109.082,234.375,108.51,194.916,108.51,192.055 M150.639,266.783c11.056-1.716,25.926-11.247,25.926-27.07
				c0-10.675-5.529-19.443-25.926-20.968V266.783 M108.51,186.394h-5.662v5.661c0,1.315,0.112,9.712,0.241,19.434
				c0.155,11.664,0.331,24.883,0.331,27.272v20.968c0,14.068-0.384,59.517-0.57,67.542l-0.135,5.793h5.794h42.51h6.227l-0.591-6.198
				c-0.223-2.339-0.356-12.827-0.356-28.057v-0.422c47.75-9.48,69.198-38.63,69.198-64.012c0-21.289-14.25-36.576-40.126-43.046
				C168.31,187.218,143.318,186.394,108.51,186.394L108.51,186.394z M156.3,259.235v-34.074
				c14.603,2.757,14.604,10.57,14.604,14.551C170.903,249.333,163.643,256.022,156.3,259.235L156.3,259.235z"/>
		</g>
		<g>
			<g>
				<g>
					<defs>
						<path id="SVGID_18_" d="M402.134,335.357c-6.432-0.085-13.722-0.181-23.018-1.356c-28.78-3.645-51.455-13.399-65.575-28.214
							c-11.625-12.198-17.205-27.778-15.311-42.744c4.133-32.645,39.05-68.166,107.742-73.931l2.771-0.232L413.119,232l-2.973,0.151
							c-35.188,1.79-56.751,13.731-59.16,32.764c-0.794,6.271,1.998,12.534,7.861,17.631c6.449,5.604,16.295,9.487,27.725,10.934
							c6.89,0.872,12.513,1.111,17.032,1.301l4.071,0.177l-2.871,40.433L402.134,335.357z"/>
					</defs>
					<clipPath id="SVGID_19_">
						<use xlink:href="#SVGID_18_"  overflow="visible"/>
					</clipPath>
					<rect x="296.336" y="188.88" clip-path="url(#SVGID_19_)" fill="#E2E41D" width="116.783" height="146.51"/>
					<path clip-path="url(#SVGID_19_)" fill="#E2E41D" d="M309.889,303.756c-12.977-12.977-19.463-29.985-19.461-46.996
						c0.002-17.01,6.494-34.021,19.473-47c25.96-25.959,68.043-25.965,93.996-0.012c6.488,6.488,11.354,13.984,14.598,21.985h-4.375
						v50.021h4.369c-3.246,8.001-8.113,15.499-14.603,21.989C377.925,329.704,335.842,329.708,309.889,303.756z"/>
					<path clip-path="url(#SVGID_19_)" fill="#E3E41C" d="M310.016,303.629c-12.941-12.941-19.411-29.905-19.409-46.869
						c0.002-16.964,6.476-33.929,19.421-46.874c25.89-25.89,67.86-25.895,93.743-0.012c6.471,6.471,11.324,13.947,14.559,21.926
						h-4.21v49.888h4.204c-3.237,7.979-8.092,15.457-14.564,21.93C377.869,329.507,335.898,329.512,310.016,303.629z"/>
					<path clip-path="url(#SVGID_19_)" fill="#E3E41C" d="M310.142,303.503c-12.907-12.907-19.359-29.824-19.357-46.743
						c0.002-16.918,6.458-33.837,19.369-46.748c25.82-25.82,67.677-25.825,93.49-0.012c6.454,6.453,11.293,13.909,14.52,21.867
						h-4.044v49.753h4.038c-3.228,7.958-8.07,15.416-14.525,21.871C377.812,329.311,335.955,329.317,310.142,303.503z"/>
					<path clip-path="url(#SVGID_19_)" fill="#E4E41B" d="M310.268,303.377c-12.872-12.872-19.306-29.744-19.304-46.617
						c0.002-16.873,6.441-33.746,19.316-46.621c25.75-25.75,67.494-25.756,93.238-0.012c6.436,6.436,11.262,13.872,14.479,21.808
						h-3.878v49.618h3.873c-3.22,7.937-8.048,15.374-14.486,21.812C377.756,329.115,336.012,329.121,310.268,303.377z"/>
					<path clip-path="url(#SVGID_19_)" fill="#E4E41B" d="M310.395,303.25c-12.837-12.837-19.254-29.663-19.252-46.49
						s6.424-33.655,19.264-46.495c25.681-25.68,67.312-25.686,92.985-0.012c6.418,6.418,11.232,13.834,14.44,21.749h-3.713v49.484
						h3.707c-3.211,7.915-8.026,15.332-14.446,21.752C377.699,328.919,336.068,328.924,310.395,303.25z"/>
					<path clip-path="url(#SVGID_19_)" fill="#E5E51A" d="M310.521,303.124c-12.802-12.802-19.202-29.583-19.2-46.364
						s6.406-33.563,19.211-46.369c25.611-25.611,67.128-25.616,92.732-0.012c6.401,6.401,11.202,13.796,14.401,21.689h-3.547v49.35
						h3.541c-3.202,7.894-8.004,15.291-14.407,21.693C377.643,328.723,336.125,328.728,310.521,303.124z"/>
					<path clip-path="url(#SVGID_19_)" fill="#E5E51B" d="M310.647,302.998c-12.768-12.767-19.149-29.502-19.147-46.237
						s6.389-33.472,19.159-46.242c25.541-25.541,66.945-25.546,92.479-0.012c6.384,6.383,11.171,13.759,14.362,21.63h-3.382v49.215
						h3.375c-3.193,7.873-7.982,15.249-14.368,21.634C377.586,328.527,336.182,328.532,310.647,302.998z"/>
					<path clip-path="url(#SVGID_19_)" fill="#E6E51A" d="M310.773,302.872c-12.732-12.732-19.097-29.421-19.095-46.111
						s6.371-33.38,19.106-46.116c25.471-25.471,66.763-25.476,92.228-0.012c6.366,6.366,11.14,13.722,14.323,21.572h-3.216v49.081
						h3.21c-3.185,7.851-7.96,15.207-14.328,21.575C377.53,328.331,336.238,328.335,310.773,302.872z"/>
					<path clip-path="url(#SVGID_19_)" fill="#E7E519" d="M310.9,302.745c-12.697-12.697-19.045-29.341-19.042-45.985
						c0.002-16.644,6.354-33.289,19.054-45.99c25.401-25.401,66.58-25.406,91.975-0.012c6.349,6.349,11.11,13.684,14.284,21.512
						h-3.051v48.946h3.044c-3.176,7.829-7.939,15.166-14.289,21.516C377.473,328.134,336.295,328.14,310.9,302.745z"/>
					<path clip-path="url(#SVGID_19_)" fill="#E7E519" d="M311.026,302.619c-12.663-12.663-18.993-29.26-18.99-45.858
						c0.002-16.599,6.336-33.198,19.002-45.863c25.332-25.332,66.396-25.337,91.722-0.012c6.331,6.331,11.08,13.646,14.245,21.453
						h-2.885v48.812h2.879c-3.167,7.808-7.917,15.124-14.25,21.457C377.417,327.939,336.352,327.944,311.026,302.619z"/>
					<path clip-path="url(#SVGID_19_)" fill="#E8E618" d="M311.153,302.492c-12.628-12.627-18.94-29.179-18.938-45.732
						c0.002-16.553,6.319-33.106,18.95-45.737c25.262-25.262,66.213-25.267,91.469-0.011c6.314,6.313,11.049,13.608,14.206,21.394
						h-2.72v48.677h2.713c-3.158,7.786-7.895,15.082-14.21,21.397C377.36,327.743,336.408,327.748,311.153,302.492z"/>
					<path clip-path="url(#SVGID_19_)" fill="#E8E619" d="M311.279,302.366c-12.593-12.592-18.888-29.099-18.886-45.605
						c0.002-16.507,6.302-33.015,18.897-45.611c25.192-25.192,66.031-25.197,91.216-0.011c6.297,6.296,11.019,13.571,14.166,21.335
						h-2.554v48.542h2.548c-3.15,7.765-7.874,15.041-14.171,21.339C377.304,327.546,336.464,327.551,311.279,302.366z"/>
					<path clip-path="url(#SVGID_19_)" fill="#E9E618" d="M311.405,302.24c-12.558-12.558-18.835-29.019-18.833-45.479
						c0.002-16.461,6.284-32.923,18.845-45.484c25.122-25.122,65.848-25.127,90.964-0.012c6.279,6.279,10.988,13.534,14.126,21.276
						h-2.388v48.408h2.382c-3.141,7.744-7.852,15-14.132,21.28C377.247,327.35,336.521,327.355,311.405,302.24z"/>
					<path clip-path="url(#SVGID_19_)" fill="#E9E617" d="M311.532,302.113c-12.523-12.523-18.783-28.938-18.781-45.353
						c0.002-16.416,6.267-32.832,18.793-45.358c25.052-25.052,65.665-25.058,90.711-0.012
						c12.523,12.523,18.783,28.938,18.781,45.353c-0.002,16.416-6.267,32.832-18.793,45.358
						C377.19,327.154,336.578,327.16,311.532,302.113z"/>
					<path clip-path="url(#SVGID_19_)" fill="#E9E617" d="M311.658,301.987c-12.488-12.488-18.731-28.857-18.729-45.227
						c0.002-16.37,6.249-32.741,18.741-45.232c24.982-24.982,65.482-24.988,90.458-0.011c12.488,12.488,18.731,28.857,18.729,45.227
						c-0.002,16.37-6.249,32.74-18.74,45.232C377.134,326.958,336.634,326.963,311.658,301.987z"/>
					<path clip-path="url(#SVGID_19_)" fill="#E9E616" d="M311.785,301.86c-12.454-12.453-18.679-28.776-18.677-45.1
						c0.002-16.324,6.231-32.649,18.688-45.105c24.913-24.913,65.299-24.918,90.206-0.011c12.454,12.453,18.679,28.776,18.677,45.1
						c-0.002,16.324-6.231,32.649-18.688,45.105C377.078,326.762,336.691,326.767,311.785,301.86z"/>
					<path clip-path="url(#SVGID_19_)" fill="#E9E616" d="M311.911,301.734c-12.418-12.418-18.626-28.695-18.625-44.974
						s6.214-32.558,18.636-44.979c24.843-24.843,65.116-24.848,89.953-0.012c12.418,12.418,18.626,28.696,18.624,44.974
						s-6.214,32.558-18.636,44.979C377.021,326.566,336.748,326.571,311.911,301.734z"/>
					<path clip-path="url(#SVGID_19_)" fill="#EAE616" d="M312.037,301.608c-12.383-12.384-18.574-28.615-18.572-44.848
						c0.002-16.233,6.197-32.466,18.583-44.853c24.773-24.773,64.933-24.778,89.7-0.011c12.383,12.384,18.574,28.615,18.572,44.848
						c-0.002,16.233-6.197,32.466-18.583,44.853C376.964,326.37,336.804,326.375,312.037,301.608z"/>
					<path clip-path="url(#SVGID_19_)" fill="#EAE616" d="M312.164,301.481c-12.349-12.349-18.521-28.535-18.52-44.722
						c0.002-16.187,6.179-32.375,18.531-44.726c24.704-24.703,64.75-24.708,89.448-0.011c12.349,12.349,18.521,28.535,18.52,44.722
						c-0.002,16.187-6.179,32.374-18.531,44.726C376.908,326.173,336.861,326.178,312.164,301.481z"/>
					<path clip-path="url(#SVGID_19_)" fill="#EAE614" d="M312.29,301.355c-12.314-12.313-18.469-28.454-18.467-44.595
						s6.162-32.283,18.479-44.6c24.634-24.634,64.568-24.639,89.195-0.011c12.314,12.313,18.47,28.454,18.467,44.595
						c-0.002,16.141-6.162,32.283-18.479,44.6C376.851,325.977,336.917,325.983,312.29,301.355z"/>
					<path clip-path="url(#SVGID_19_)" fill="#EAE615" d="M312.416,301.229c-12.278-12.279-18.417-28.374-18.415-44.469
						c0.002-16.095,6.144-32.191,18.426-44.473c24.564-24.564,64.385-24.569,88.942-0.012
						c12.279,12.279,18.417,28.374,18.415,44.469c-0.002,16.095-6.145,32.191-18.427,44.473
						C376.795,325.782,336.974,325.787,312.416,301.229z"/>
					<path clip-path="url(#SVGID_19_)" fill="#EAE714" d="M312.542,301.103c-12.244-12.244-18.365-28.293-18.362-44.343
						c0.002-16.049,6.126-32.1,18.374-44.347c24.494-24.494,64.202-24.499,88.69-0.011c12.244,12.244,18.365,28.293,18.362,44.343
						c-0.002,16.049-6.126,32.1-18.374,44.347C376.738,325.585,337.03,325.59,312.542,301.103z"/>
					<path clip-path="url(#SVGID_19_)" fill="#EAE714" d="M312.669,300.976c-12.209-12.209-18.312-28.212-18.31-44.216
						c0.002-16.004,6.109-32.008,18.321-44.221c24.424-24.424,64.019-24.429,88.437-0.011c12.209,12.209,18.312,28.212,18.31,44.216
						c-0.002,16.004-6.109,32.008-18.321,44.221C376.682,325.389,337.087,325.394,312.669,300.976z"/>
					<path clip-path="url(#SVGID_19_)" fill="#EAE615" d="M312.795,300.85c-24.349-24.348-24.343-63.83,0.011-88.184
						s63.836-24.36,88.184-0.011c12.174,12.174,18.26,28.131,18.258,44.09c-0.002,15.958-6.092,31.917-18.27,44.094
						C376.625,325.193,337.144,325.198,312.795,300.85z"/>
					<path clip-path="url(#SVGID_19_)" fill="#EAE613" d="M312.922,300.723c-24.279-24.278-24.274-63.646,0.011-87.932
						c24.285-24.285,63.653-24.29,87.931-0.011c12.14,12.139,18.208,28.051,18.206,43.963s-6.075,31.826-18.217,43.968
						C376.568,324.997,337.2,325.001,312.922,300.723z"/>
					<path clip-path="url(#SVGID_19_)" fill="#EAE614" d="M313.048,300.597c-24.208-24.209-24.204-63.464,0.011-87.679
						c24.215-24.215,63.47-24.22,87.679-0.011c12.104,12.104,18.155,27.971,18.153,43.837s-6.057,31.734-18.165,43.842
						C376.512,324.801,337.257,324.806,313.048,300.597z"/>
					<path clip-path="url(#SVGID_19_)" fill="#EAE613" d="M313.174,300.471c-24.139-24.139-24.134-63.281,0.011-87.426
						c24.145-24.146,63.287-24.15,87.426-0.011c12.069,12.069,18.103,27.89,18.101,43.711c-0.002,15.821-6.04,31.643-18.112,43.715
						C376.456,324.605,337.313,324.61,313.174,300.471z"/>
					<path clip-path="url(#SVGID_19_)" fill="#EAE613" d="M313.301,300.344c-24.069-24.069-24.064-63.098,0.011-87.174
						c24.076-24.075,63.104-24.08,87.174-0.011c12.035,12.035,18.051,27.809,18.049,43.584s-6.022,31.551-18.06,43.589
						C376.399,324.409,337.37,324.414,313.301,300.344z"/>
					<path clip-path="url(#SVGID_19_)" fill="#EAE713" d="M313.427,300.218c-24-24-23.995-62.915,0.011-86.921
						c24.006-24.005,62.921-24.01,86.921-0.011c12,12,17.999,27.729,17.997,43.458s-6.004,31.46-18.007,43.463
						C376.342,324.212,337.427,324.217,313.427,300.218z"/>
					<path clip-path="url(#SVGID_19_)" fill="#EAE612" d="M313.554,300.091c-23.93-23.93-23.925-62.732,0.011-86.668
						c23.936-23.936,62.738-23.941,86.668-0.011c11.965,11.964,17.946,27.647,17.944,43.332s-5.987,31.369-17.955,43.336
						C376.286,324.017,337.483,324.021,313.554,300.091z"/>
					<path clip-path="url(#SVGID_19_)" fill="#EAE612" d="M313.68,299.965c-23.86-23.86-23.855-62.55,0.011-86.416
						c23.866-23.866,62.556-23.871,86.416-0.011c11.93,11.93,17.894,27.567,17.892,43.206s-5.97,31.277-17.903,43.21
						C376.229,323.82,337.54,323.825,313.68,299.965z"/>
					<path clip-path="url(#SVGID_19_)" fill="#EAE612" d="M313.806,299.839c-23.79-23.79-23.785-62.367,0.011-86.163
						c23.796-23.796,62.373-23.801,86.163-0.011c11.895,11.895,17.841,27.487,17.839,43.079s-5.952,31.186-17.85,43.084
						C376.173,323.624,337.596,323.629,313.806,299.839z"/>
					<path clip-path="url(#SVGID_19_)" fill="#EAE612" d="M313.933,299.712c-23.721-23.72-23.716-62.184,0.011-85.91
						s62.19-23.731,85.91-0.011c11.86,11.86,17.789,27.406,17.787,42.953c-0.002,15.547-5.935,31.094-17.798,42.958
						C376.116,323.428,337.653,323.433,313.933,299.712z"/>
					<path clip-path="url(#SVGID_19_)" fill="#EAE611" d="M314.059,299.586c-23.651-23.65-23.646-62,0.011-85.657
						s62.007-23.662,85.657-0.011c11.826,11.825,17.737,27.325,17.735,42.826s-5.917,31.003-17.746,42.831
						C376.06,323.232,337.709,323.237,314.059,299.586z"/>
					<path clip-path="url(#SVGID_19_)" fill="#EAE612" d="M314.185,299.46c-23.581-23.581-23.576-61.818,0.011-85.405
						s61.824-23.592,85.405-0.011c11.791,11.791,17.684,27.245,17.683,42.7c-0.002,15.456-5.9,30.912-17.694,42.705
						C376.003,323.036,337.766,323.041,314.185,299.46z"/>
					<path clip-path="url(#SVGID_19_)" fill="#EAE511" d="M314.312,299.333c-23.511-23.511-23.506-61.635,0.011-85.152
						s61.641-23.522,85.152-0.011c11.755,11.756,17.632,27.165,17.63,42.574c-0.002,15.41-5.883,30.82-17.641,42.579
						C375.947,322.84,337.823,322.845,314.312,299.333z"/>
					<path clip-path="url(#SVGID_19_)" fill="#EAE612" d="M314.438,299.207c-23.441-23.441-23.437-61.452,0.011-84.899
						s61.458-23.452,84.899-0.011c11.721,11.721,17.58,27.083,17.578,42.447s-5.865,30.729-17.589,42.452
						C375.89,322.644,337.879,322.648,314.438,299.207z"/>
					<path clip-path="url(#SVGID_19_)" fill="#EAE512" d="M314.564,299.081c-23.372-23.372-23.367-61.269,0.011-84.646
						c23.377-23.378,61.275-23.382,84.646-0.011c11.686,11.686,17.528,27.003,17.526,42.321
						c-0.002,15.318-5.848,30.637-17.537,42.326C375.833,322.448,337.936,322.452,314.564,299.081z"/>
					<path clip-path="url(#SVGID_19_)" fill="#EAE512" d="M314.69,298.955c-23.302-23.302-23.297-61.086,0.011-84.395
						c23.308-23.308,61.092-23.312,84.395-0.011c11.651,11.651,17.475,26.923,17.473,42.195c-0.002,15.272-5.83,30.545-17.484,42.2
						C375.777,322.251,337.993,322.256,314.69,298.955z"/>
					<path clip-path="url(#SVGID_19_)" fill="#E9E512" d="M314.817,298.828c-23.232-23.232-23.227-60.904,0.011-84.142
						s60.91-23.243,84.142-0.011c11.616,11.616,17.423,26.842,17.421,42.068c-0.002,15.227-5.812,30.454-17.432,42.073
						C375.721,322.055,338.049,322.06,314.817,298.828z"/>
					<path clip-path="url(#SVGID_19_)" fill="#EAE412" d="M314.943,298.702c-23.162-23.162-23.158-60.721,0.011-83.889
						c23.168-23.168,60.727-23.173,83.889-0.011c11.581,11.581,17.371,26.761,17.369,41.942
						c-0.002,15.181-5.795,30.362-17.379,41.946C375.664,321.859,338.105,321.864,314.943,298.702z"/>
					<path clip-path="url(#SVGID_19_)" fill="#EAE413" d="M315.07,298.575c-23.093-23.092-23.088-60.538,0.011-83.636
						c23.098-23.098,60.543-23.103,83.636-0.01c11.546,11.546,17.318,26.681,17.316,41.816c-0.002,15.135-5.778,30.271-17.327,41.82
						C375.607,321.663,338.162,321.668,315.07,298.575z"/>
					<path clip-path="url(#SVGID_19_)" fill="#EAE413" d="M315.196,298.449c-23.023-23.022-23.018-60.354,0.01-83.383
						c23.029-23.029,60.361-23.033,83.383-0.01c11.512,11.511,17.266,26.6,17.264,41.689s-5.76,30.179-17.274,41.694
						C375.551,321.467,338.219,321.472,315.196,298.449z"/>
					<path clip-path="url(#SVGID_19_)" fill="#EAE413" d="M315.322,298.323c-22.953-22.953-22.948-60.172,0.011-83.131
						s60.178-22.964,83.131-0.011c11.477,11.477,17.213,26.52,17.211,41.563c-0.002,15.043-5.743,30.088-17.222,41.567
						C375.494,321.271,338.275,321.276,315.322,298.323z"/>
					<path clip-path="url(#SVGID_19_)" fill="#E9E313" d="M315.449,298.196c-22.883-22.883-22.878-59.989,0.011-82.878
						c22.889-22.889,59.995-22.894,82.878-0.011c11.442,11.441,17.161,26.439,17.159,41.437
						c-0.001,14.998-5.725,29.997-17.169,41.441C375.438,321.075,338.332,321.08,315.449,298.196z"/>
					
						<ellipse transform="matrix(-0.7071 0.7071 -0.7071 -0.7071 790.8056 185.9415)" clip-path="url(#SVGID_19_)" fill="#E9E313" cx="356.893" cy="256.752" rx="58.432" ry="58.418"/>
					
						<ellipse transform="matrix(-0.7071 0.7071 -0.7071 -0.7071 790.8056 185.9415)" clip-path="url(#SVGID_19_)" fill="#E9E213" cx="356.893" cy="256.752" rx="58.253" ry="58.239"/>
					
						<ellipse transform="matrix(-0.7071 0.7071 -0.7071 -0.7071 790.8058 185.9409)" clip-path="url(#SVGID_19_)" fill="#E9E214" cx="356.893" cy="256.752" rx="58.075" ry="58.06"/>
					
						<ellipse transform="matrix(-0.7071 0.7071 -0.7071 -0.7071 790.8056 185.9415)" clip-path="url(#SVGID_19_)" fill="#E9E214" cx="356.893" cy="256.752" rx="57.896" ry="57.882"/>
					
						<ellipse transform="matrix(-0.7071 0.7071 -0.7071 -0.7071 790.8056 185.9415)" clip-path="url(#SVGID_19_)" fill="#E9E214" cx="356.893" cy="256.752" rx="57.718" ry="57.703"/>
					
						<ellipse transform="matrix(-0.7071 0.7071 -0.7071 -0.7071 790.8056 185.9415)" clip-path="url(#SVGID_19_)" fill="#E9E214" cx="356.893" cy="256.752" rx="57.539" ry="57.524"/>
					
						<ellipse transform="matrix(-0.7071 0.7071 -0.7071 -0.7071 790.8058 185.9409)" clip-path="url(#SVGID_19_)" fill="#E9E114" cx="356.893" cy="256.752" rx="57.36" ry="57.345"/>
					
						<ellipse transform="matrix(-0.7071 0.7071 -0.7071 -0.7071 790.8056 185.9415)" clip-path="url(#SVGID_19_)" fill="#E8E015" cx="356.893" cy="256.752" rx="57.182" ry="57.167"/>
					
						<ellipse transform="matrix(-0.7071 0.7071 -0.7071 -0.7071 790.8056 185.9415)" clip-path="url(#SVGID_19_)" fill="#E8E016" cx="356.893" cy="256.752" rx="57.003" ry="56.988"/>
					
						<ellipse transform="matrix(-0.7071 0.7071 -0.7071 -0.7071 790.8056 185.9415)" clip-path="url(#SVGID_19_)" fill="#E8E016" cx="356.893" cy="256.752" rx="56.824" ry="56.81"/>
					
						<ellipse transform="matrix(-0.7071 0.7071 -0.7071 -0.7071 790.8056 185.9415)" clip-path="url(#SVGID_19_)" fill="#E8DF16" cx="356.893" cy="256.752" rx="56.645" ry="56.631"/>
					
						<ellipse transform="matrix(-0.7071 0.7071 -0.7071 -0.7071 790.8056 185.9415)" clip-path="url(#SVGID_19_)" fill="#E7DE18" cx="356.893" cy="256.752" rx="56.467" ry="56.453"/>
					
						<ellipse transform="matrix(-0.7071 0.7071 -0.7071 -0.7071 790.8056 185.9415)" clip-path="url(#SVGID_19_)" fill="#E7DE18" cx="356.893" cy="256.752" rx="56.288" ry="56.274"/>
					
						<ellipse transform="matrix(-0.7071 0.7071 -0.7071 -0.7071 790.8056 185.9415)" clip-path="url(#SVGID_19_)" fill="#E7DE18" cx="356.893" cy="256.752" rx="56.109" ry="56.096"/>
					
						<ellipse transform="matrix(-0.7071 0.7071 -0.7071 -0.7071 790.8056 185.9415)" clip-path="url(#SVGID_19_)" fill="#E7DE18" cx="356.893" cy="256.752" rx="55.93" ry="55.917"/>
					
						<ellipse transform="matrix(-0.7071 0.7071 -0.7071 -0.7071 790.8063 185.9427)" clip-path="url(#SVGID_19_)" fill="#E6DC19" cx="356.893" cy="256.752" rx="55.752" ry="55.738"/>
					
						<ellipse transform="matrix(-0.7071 0.7071 -0.7071 -0.7071 790.8056 185.9415)" clip-path="url(#SVGID_19_)" fill="#E6DC19" cx="356.893" cy="256.752" rx="55.573" ry="55.559"/>
					
						<ellipse transform="matrix(-0.7071 0.7071 -0.7071 -0.7071 790.8056 185.9415)" clip-path="url(#SVGID_19_)" fill="#E6DC1A" cx="356.893" cy="256.752" rx="55.395" ry="55.381"/>
					
						<ellipse transform="matrix(-0.7071 0.7071 -0.7071 -0.7071 790.8056 185.9415)" clip-path="url(#SVGID_19_)" fill="#E5DB1B" cx="356.893" cy="256.752" rx="55.216" ry="55.202"/>
					
						<ellipse transform="matrix(-0.7071 0.7071 -0.7071 -0.7071 790.8056 185.9415)" clip-path="url(#SVGID_19_)" fill="#E5DA1B" cx="356.893" cy="256.752" rx="55.037" ry="55.023"/>
					
						<ellipse transform="matrix(-0.7071 0.7071 -0.7071 -0.7071 790.8056 185.9415)" clip-path="url(#SVGID_19_)" fill="#E5DA1B" cx="356.893" cy="256.752" rx="54.859" ry="54.844"/>
					
						<ellipse transform="matrix(-0.7071 0.7071 -0.7071 -0.7071 790.8056 185.9415)" clip-path="url(#SVGID_19_)" fill="#E5DA1C" cx="356.893" cy="256.752" rx="54.68" ry="54.666"/>
					
						<ellipse transform="matrix(-0.7071 0.7071 -0.7071 -0.7071 790.8056 185.9415)" clip-path="url(#SVGID_19_)" fill="#E4D81D" cx="356.893" cy="256.752" rx="54.501" ry="54.487"/>
					
						<ellipse transform="matrix(-0.7071 0.7071 -0.7071 -0.7071 790.8056 185.9415)" clip-path="url(#SVGID_19_)" fill="#E4D81D" cx="356.893" cy="256.752" rx="54.322" ry="54.308"/>
					
						<ellipse transform="matrix(-0.7071 0.7071 -0.7071 -0.7071 790.8056 185.9415)" clip-path="url(#SVGID_19_)" fill="#E4D81D" cx="356.893" cy="256.752" rx="54.144" ry="54.13"/>
					
						<ellipse transform="matrix(-0.7071 0.7071 -0.7071 -0.7071 790.8056 185.9415)" clip-path="url(#SVGID_19_)" fill="#E4D81D" cx="356.893" cy="256.752" rx="53.965" ry="53.951"/>
					
						<ellipse transform="matrix(-0.7071 0.7071 -0.7071 -0.7071 790.8056 185.9415)" clip-path="url(#SVGID_19_)" fill="#E3D61E" cx="356.893" cy="256.752" rx="53.786" ry="53.773"/>
					
						<ellipse transform="matrix(-0.7071 0.7071 -0.7071 -0.7071 790.8056 185.9415)" clip-path="url(#SVGID_19_)" fill="#E3D61E" cx="356.893" cy="256.752" rx="53.608" ry="53.594"/>
					
						<ellipse transform="matrix(-0.7071 0.7071 -0.7071 -0.7071 790.8063 185.9428)" clip-path="url(#SVGID_19_)" fill="#E3D61F" cx="356.893" cy="256.752" rx="53.429" ry="53.416"/>
					
						<ellipse transform="matrix(-0.7071 0.7071 -0.7071 -0.7071 790.8056 185.9415)" clip-path="url(#SVGID_19_)" fill="#E2D520" cx="356.893" cy="256.752" rx="53.251" ry="53.237"/>
					
						<ellipse transform="matrix(-0.7071 0.7071 -0.7071 -0.7071 790.8056 185.9415)" clip-path="url(#SVGID_19_)" fill="#E2D420" cx="356.893" cy="256.752" rx="53.072" ry="53.058"/>
					
						<ellipse transform="matrix(-0.7071 0.7071 -0.7071 -0.7071 790.8056 185.9415)" clip-path="url(#SVGID_19_)" fill="#E2D420" cx="356.893" cy="256.752" rx="52.893" ry="52.88"/>
					
						<ellipse transform="matrix(-0.7071 0.7071 -0.7071 -0.7071 790.8056 185.9415)" clip-path="url(#SVGID_19_)" fill="#E2D420" cx="356.893" cy="256.752" rx="52.714" ry="52.701"/>
					
						<ellipse transform="matrix(-0.7071 0.7071 -0.7071 -0.7071 790.8058 185.9399)" clip-path="url(#SVGID_19_)" fill="#E1D220" cx="356.893" cy="256.752" rx="52.536" ry="52.522"/>
					
						<ellipse transform="matrix(-0.7071 0.7071 -0.7071 -0.7071 790.8056 185.9415)" clip-path="url(#SVGID_19_)" fill="#E1D220" cx="356.893" cy="256.752" rx="52.357" ry="52.344"/>
					
						<ellipse transform="matrix(-0.7071 0.7071 -0.7071 -0.7071 790.8056 185.9415)" clip-path="url(#SVGID_19_)" fill="#E1D220" cx="356.893" cy="256.752" rx="52.178" ry="52.165"/>
					
						<ellipse transform="matrix(-0.7071 0.7071 -0.7071 -0.7071 790.8056 185.9415)" clip-path="url(#SVGID_19_)" fill="#E0D020" cx="356.893" cy="256.752" rx="51.999" ry="51.986"/>
					
						<ellipse transform="matrix(-0.7071 0.7071 -0.7071 -0.7071 790.8063 185.9428)" clip-path="url(#SVGID_19_)" fill="#E0D020" cx="356.893" cy="256.752" rx="51.821" ry="51.807"/>
					
						<ellipse transform="matrix(-0.7071 0.7071 -0.7071 -0.7071 790.8056 185.9415)" clip-path="url(#SVGID_19_)" fill="#E0D020" cx="356.893" cy="256.752" rx="51.642" ry="51.629"/>
					
						<ellipse transform="matrix(-0.7071 0.7071 -0.7071 -0.7071 790.8056 185.9415)" clip-path="url(#SVGID_19_)" fill="#DFCE21" cx="356.893" cy="256.752" rx="51.463" ry="51.45"/>
					
						<ellipse transform="matrix(-0.7071 0.7071 -0.7071 -0.7071 790.8056 185.9415)" clip-path="url(#SVGID_19_)" fill="#DFCE21" cx="356.893" cy="256.752" rx="51.285" ry="51.271"/>
					
						<ellipse transform="matrix(-0.7071 0.7071 -0.7071 -0.7071 790.8056 185.9415)" clip-path="url(#SVGID_19_)" fill="#DFCE21" cx="356.893" cy="256.752" rx="51.106" ry="51.093"/>
					
						<ellipse transform="matrix(-0.7071 0.7071 -0.7071 -0.7071 790.8056 185.9415)" clip-path="url(#SVGID_19_)" fill="#DFCD22" cx="356.893" cy="256.752" rx="50.928" ry="50.914"/>
					
						<ellipse transform="matrix(-0.7071 0.7071 -0.7071 -0.7071 790.8056 185.9415)" clip-path="url(#SVGID_19_)" fill="#E0CE21" cx="356.893" cy="256.752" rx="50.749" ry="50.736"/>
					
						<ellipse transform="matrix(-0.7071 0.7071 -0.7071 -0.7071 790.8056 185.9415)" clip-path="url(#SVGID_19_)" fill="#E0CE21" cx="356.893" cy="256.752" rx="50.57" ry="50.557"/>
					
						<ellipse transform="matrix(-0.7071 0.7071 -0.7071 -0.7071 790.8056 185.9415)" clip-path="url(#SVGID_19_)" fill="#E1CE20" cx="356.893" cy="256.752" rx="50.391" ry="50.379"/>
					
						<ellipse transform="matrix(-0.7071 0.7071 -0.7071 -0.7071 790.8058 185.9409)" clip-path="url(#SVGID_19_)" fill="#E1CE20" cx="356.893" cy="256.752" rx="50.213" ry="50.2"/>
					
						<ellipse transform="matrix(-0.7071 0.7071 -0.7071 -0.7071 790.8056 185.9415)" clip-path="url(#SVGID_19_)" fill="#E3CF20" cx="356.893" cy="256.752" rx="50.034" ry="50.021"/>
					
						<ellipse transform="matrix(-0.7071 0.7071 -0.7071 -0.7071 790.8056 185.9415)" clip-path="url(#SVGID_19_)" fill="#E3CF20" cx="356.893" cy="256.752" rx="49.855" ry="49.843"/>
					
						<ellipse transform="matrix(-0.7071 0.7071 -0.7071 -0.7071 790.8056 185.9415)" clip-path="url(#SVGID_19_)" fill="#E4CF20" cx="356.893" cy="256.752" rx="49.676" ry="49.664"/>
					
						<ellipse transform="matrix(-0.7071 0.7071 -0.7071 -0.7071 790.8056 185.9415)" clip-path="url(#SVGID_19_)" fill="#E4CF20" cx="356.893" cy="256.752" rx="49.497" ry="49.485"/>
					
						<ellipse transform="matrix(-0.7071 0.7071 -0.7071 -0.7071 790.8056 185.9415)" clip-path="url(#SVGID_19_)" fill="#E5CF21" cx="356.893" cy="256.752" rx="49.319" ry="49.307"/>
					
						<ellipse transform="matrix(-0.7071 0.7071 -0.7071 -0.7071 790.8056 185.9415)" clip-path="url(#SVGID_19_)" fill="#E5CF21" cx="356.893" cy="256.752" rx="49.14" ry="49.128"/>
					
						<ellipse transform="matrix(-0.7071 0.7071 -0.7071 -0.7071 790.8056 185.9415)" clip-path="url(#SVGID_19_)" fill="#E5CF21" cx="356.893" cy="256.752" rx="48.962" ry="48.949"/>
					
						<ellipse transform="matrix(-0.7071 0.7071 -0.7071 -0.7071 790.8056 185.9415)" clip-path="url(#SVGID_19_)" fill="#E6CF21" cx="356.893" cy="256.752" rx="48.783" ry="48.771"/>
					
						<ellipse transform="matrix(-0.7071 0.7071 -0.7071 -0.7071 790.8056 185.9415)" clip-path="url(#SVGID_19_)" fill="#E6CF22" cx="356.893" cy="256.752" rx="48.605" ry="48.592"/>
					
						<ellipse transform="matrix(-0.7071 0.7071 -0.7071 -0.7071 790.8056 185.9415)" clip-path="url(#SVGID_19_)" fill="#E7D022" cx="356.893" cy="256.752" rx="48.426" ry="48.413"/>
					
						<ellipse transform="matrix(-0.7071 0.7071 -0.7071 -0.7071 790.8056 185.9415)" clip-path="url(#SVGID_19_)" fill="#E7D023" cx="356.893" cy="256.752" rx="48.247" ry="48.234"/>
					
						<ellipse transform="matrix(-0.7071 0.7071 -0.7071 -0.7071 790.8056 185.9415)" clip-path="url(#SVGID_19_)" fill="#E8D023" cx="356.893" cy="256.752" rx="48.068" ry="48.056"/>
					
						<ellipse transform="matrix(-0.7071 0.7071 -0.7071 -0.7071 790.8063 185.9429)" clip-path="url(#SVGID_19_)" fill="#E8D023" cx="356.893" cy="256.752" rx="47.889" ry="47.878"/>
					
						<ellipse transform="matrix(-0.7071 0.7071 -0.7071 -0.7071 790.8056 185.9415)" clip-path="url(#SVGID_19_)" fill="#E9D024" cx="356.893" cy="256.752" rx="47.711" ry="47.699"/>
					
						<ellipse transform="matrix(-0.7071 0.7071 -0.7071 -0.7071 790.8056 185.9415)" clip-path="url(#SVGID_19_)" fill="#E9D024" cx="356.893" cy="256.752" rx="47.532" ry="47.52"/>
					
						<ellipse transform="matrix(-0.7071 0.7071 -0.7071 -0.7071 790.8056 185.9415)" clip-path="url(#SVGID_19_)" fill="#EAD024" cx="356.893" cy="256.752" rx="47.353" ry="47.342"/>
					
						<ellipse transform="matrix(-0.7071 0.7071 -0.7071 -0.7071 790.8056 185.9415)" clip-path="url(#SVGID_19_)" fill="#EAD025" cx="356.893" cy="256.752" rx="47.175" ry="47.163"/>
					
						<ellipse transform="matrix(-0.7071 0.7071 -0.7071 -0.7071 790.8058 185.9398)" clip-path="url(#SVGID_19_)" fill="#EACF24" cx="356.893" cy="256.752" rx="46.996" ry="46.984"/>
					
						<ellipse transform="matrix(-0.7071 0.7071 -0.7071 -0.7071 790.8056 185.9415)" clip-path="url(#SVGID_19_)" fill="#EACF24" cx="356.893" cy="256.752" rx="46.818" ry="46.806"/>
					
						<ellipse transform="matrix(-0.7071 0.7071 -0.7071 -0.7071 790.8056 185.9415)" clip-path="url(#SVGID_19_)" fill="#EACF25" cx="356.893" cy="256.752" rx="46.639" ry="46.627"/>
					
						<ellipse transform="matrix(-0.7071 0.7071 -0.7071 -0.7071 790.8056 185.9415)" clip-path="url(#SVGID_19_)" fill="#EACF24" cx="356.893" cy="256.752" rx="46.46" ry="46.448"/>
					
						<ellipse transform="matrix(-0.7071 0.7071 -0.7071 -0.7071 790.8058 185.9409)" clip-path="url(#SVGID_19_)" fill="#EACF25" cx="356.893" cy="256.752" rx="46.281" ry="46.269"/>
					
						<ellipse transform="matrix(-0.7071 0.7071 -0.7071 -0.7071 790.8056 185.9415)" clip-path="url(#SVGID_19_)" fill="#EBCE25" cx="356.893" cy="256.752" rx="46.103" ry="46.091"/>
					
						<ellipse transform="matrix(-0.7071 0.7071 -0.7071 -0.7071 790.8056 185.9415)" clip-path="url(#SVGID_19_)" fill="#EBCE25" cx="356.893" cy="256.752" rx="45.924" ry="45.912"/>
					
						<ellipse transform="matrix(-0.7071 0.7071 -0.7071 -0.7071 790.8056 185.9415)" clip-path="url(#SVGID_19_)" fill="#EBCE25" cx="356.893" cy="256.752" rx="45.745" ry="45.733"/>
					
						<ellipse transform="matrix(-0.7071 0.7071 -0.7071 -0.7071 790.8056 185.9415)" clip-path="url(#SVGID_19_)" fill="#EBCD25" cx="356.893" cy="256.752" rx="45.566" ry="45.555"/>
					
						<ellipse transform="matrix(-0.7071 0.7071 -0.7071 -0.7071 790.8056 185.9415)" clip-path="url(#SVGID_19_)" fill="#EBCD25" cx="356.893" cy="256.752" rx="45.388" ry="45.376"/>
					
						<ellipse transform="matrix(-0.7071 0.7071 -0.7071 -0.7071 790.8056 185.9415)" clip-path="url(#SVGID_19_)" fill="#EBCD25" cx="356.893" cy="256.752" rx="45.209" ry="45.198"/>
					
						<ellipse transform="matrix(-0.7071 0.7071 -0.7071 -0.7071 790.8056 185.9415)" clip-path="url(#SVGID_19_)" fill="#EBCC25" cx="356.893" cy="256.752" rx="45.03" ry="45.019"/>
					
						<ellipse transform="matrix(-0.7071 0.7071 -0.7071 -0.7071 790.8056 185.9415)" clip-path="url(#SVGID_19_)" fill="#EBCC25" cx="356.893" cy="256.752" rx="44.852" ry="44.841"/>
					
						<ellipse transform="matrix(-0.7071 0.7071 -0.7071 -0.7071 790.8058 185.9397)" clip-path="url(#SVGID_19_)" fill="#EBCC25" cx="356.893" cy="256.752" rx="44.673" ry="44.662"/>
					
						<ellipse transform="matrix(-0.7071 0.7071 -0.7071 -0.7071 790.8056 185.9415)" clip-path="url(#SVGID_19_)" fill="#EBCC25" cx="356.893" cy="256.752" rx="44.495" ry="44.483"/>
					
						<ellipse transform="matrix(-0.7071 0.7071 -0.7071 -0.7071 790.8056 185.9415)" clip-path="url(#SVGID_19_)" fill="#EBCC25" cx="356.893" cy="256.752" rx="44.316" ry="44.305"/>
					
						<ellipse transform="matrix(-0.7071 0.7071 -0.7071 -0.7071 790.8056 185.9415)" clip-path="url(#SVGID_19_)" fill="#EBCB25" cx="356.893" cy="256.752" rx="44.137" ry="44.126"/>
					
						<ellipse transform="matrix(-0.7071 0.7071 -0.7071 -0.7071 790.8063 185.943)" clip-path="url(#SVGID_19_)" fill="#EBCB25" cx="356.893" cy="256.752" rx="43.958" ry="43.947"/>
					
						<ellipse transform="matrix(-0.7071 0.7071 -0.7071 -0.7071 790.8056 185.9415)" clip-path="url(#SVGID_19_)" fill="#EBCA25" cx="356.893" cy="256.752" rx="43.78" ry="43.769"/>
					
						<ellipse transform="matrix(-0.7071 0.7071 -0.7071 -0.7071 790.8056 185.9415)" clip-path="url(#SVGID_19_)" fill="#EBCA25" cx="356.893" cy="256.752" rx="43.601" ry="43.59"/>
					
						<ellipse transform="matrix(-0.7071 0.7071 -0.7071 -0.7071 790.8056 185.9415)" clip-path="url(#SVGID_19_)" fill="#ECCA26" cx="356.893" cy="256.752" rx="43.422" ry="43.411"/>
					
						<ellipse transform="matrix(-0.7071 0.7071 -0.7071 -0.7071 790.8056 185.9415)" clip-path="url(#SVGID_19_)" fill="#EBC925" cx="356.893" cy="256.752" rx="43.243" ry="43.233"/>
					
						<ellipse transform="matrix(-0.7071 0.7071 -0.7071 -0.7071 790.8057 185.9396)" clip-path="url(#SVGID_19_)" fill="#ECC926" cx="356.893" cy="256.752" rx="43.065" ry="43.054"/>
					
						<ellipse transform="matrix(-0.7071 0.7071 -0.7071 -0.7071 790.8056 185.9415)" clip-path="url(#SVGID_19_)" fill="#ECC926" cx="356.893" cy="256.752" rx="42.886" ry="42.875"/>
					
						<ellipse transform="matrix(-0.7071 0.7071 -0.7071 -0.7071 790.8056 185.9415)" clip-path="url(#SVGID_19_)" fill="#ECC826" cx="356.893" cy="256.752" rx="42.707" ry="42.696"/>
					
						<ellipse transform="matrix(-0.7071 0.7071 -0.7071 -0.7071 790.8056 185.9415)" clip-path="url(#SVGID_19_)" fill="#ECC826" cx="356.893" cy="256.752" rx="42.529" ry="42.518"/>
					
						<ellipse transform="matrix(-0.7071 0.7071 -0.7071 -0.7071 790.8063 185.9431)" clip-path="url(#SVGID_19_)" fill="#ECC826" cx="356.893" cy="256.752" rx="42.35" ry="42.34"/>
					
						<ellipse transform="matrix(-0.7071 0.7071 -0.7071 -0.7071 790.8056 185.9415)" clip-path="url(#SVGID_19_)" fill="#ECC826" cx="356.893" cy="256.752" rx="42.172" ry="42.161"/>
					
						<ellipse transform="matrix(-0.7071 0.7071 -0.7071 -0.7071 790.8056 185.9415)" clip-path="url(#SVGID_19_)" fill="#ECC726" cx="356.893" cy="256.752" rx="41.993" ry="41.982"/>
					
						<ellipse transform="matrix(-0.7071 0.7071 -0.7071 -0.7071 790.8056 185.9415)" clip-path="url(#SVGID_19_)" fill="#ECC726" cx="356.893" cy="256.752" rx="41.814" ry="41.804"/>
					
						<ellipse transform="matrix(-0.7071 0.7071 -0.7071 -0.7071 790.8056 185.9415)" clip-path="url(#SVGID_19_)" fill="#ECC627" cx="356.893" cy="256.752" rx="41.635" ry="41.625"/>
					
						<ellipse transform="matrix(-0.7071 0.7071 -0.7071 -0.7071 790.8056 185.9415)" clip-path="url(#SVGID_19_)" fill="#ECC627" cx="356.893" cy="256.752" rx="41.457" ry="41.446"/>
					
						<ellipse transform="matrix(-0.7071 0.7071 -0.7071 -0.7071 790.8056 185.9415)" clip-path="url(#SVGID_19_)" fill="#ECC627" cx="356.893" cy="256.752" rx="41.278" ry="41.268"/>
					
						<ellipse transform="matrix(-0.7071 0.7071 -0.7071 -0.7071 790.8056 185.9415)" clip-path="url(#SVGID_19_)" fill="#EDC628" cx="356.893" cy="256.752" rx="41.099" ry="41.089"/>
					
						<ellipse transform="matrix(-0.7071 0.7071 -0.7071 -0.7071 790.8056 185.9415)" clip-path="url(#SVGID_19_)" fill="#EDC528" cx="356.893" cy="256.752" rx="40.92" ry="40.91"/>
					
						<ellipse transform="matrix(-0.7071 0.7071 -0.7071 -0.7071 790.8057 185.9395)" clip-path="url(#SVGID_19_)" fill="#EDC529" cx="356.893" cy="256.752" rx="40.742" ry="40.731"/>
					
						<ellipse transform="matrix(-0.7071 0.7071 -0.7071 -0.7071 790.8056 185.9415)" clip-path="url(#SVGID_19_)" fill="#EDC529" cx="356.893" cy="256.752" rx="40.563" ry="40.553"/>
					
						<ellipse transform="matrix(-0.7071 0.7071 -0.7071 -0.7071 790.8056 185.9415)" clip-path="url(#SVGID_19_)" fill="#EDC529" cx="356.893" cy="256.752" rx="40.384" ry="40.374"/>
					
						<ellipse transform="matrix(-0.7071 0.7071 -0.7071 -0.7071 790.8056 185.9415)" clip-path="url(#SVGID_19_)" fill="#EDC42A" cx="356.893" cy="256.752" rx="40.206" ry="40.195"/>
					
						<ellipse transform="matrix(-0.7071 0.7071 -0.7071 -0.7071 790.8063 185.9432)" clip-path="url(#SVGID_19_)" fill="#EDC429" cx="356.893" cy="256.752" rx="40.027" ry="40.017"/>
					
						<ellipse transform="matrix(-0.7071 0.7071 -0.7071 -0.7071 790.8056 185.9415)" clip-path="url(#SVGID_19_)" fill="#EDC429" cx="356.893" cy="256.752" rx="39.849" ry="39.838"/>
					
						<ellipse transform="matrix(-0.7071 0.7071 -0.7071 -0.7071 790.8056 185.9415)" clip-path="url(#SVGID_19_)" fill="#EEC42A" cx="356.893" cy="256.752" rx="39.67" ry="39.659"/>
					
						<ellipse transform="matrix(-0.7071 0.7071 -0.7071 -0.7071 790.8056 185.9415)" clip-path="url(#SVGID_19_)" fill="#EDC32A" cx="356.893" cy="256.752" rx="39.491" ry="39.481"/>
					
						<ellipse transform="matrix(-0.7071 0.7071 -0.7071 -0.7071 790.8056 185.9415)" clip-path="url(#SVGID_19_)" fill="#EEC32A" cx="356.893" cy="256.752" rx="39.312" ry="39.302"/>
					
						<ellipse transform="matrix(-0.7071 0.7071 -0.7071 -0.7071 790.8057 185.9394)" clip-path="url(#SVGID_19_)" fill="#EEC32B" cx="356.893" cy="256.752" rx="39.134" ry="39.124"/>
					
						<ellipse transform="matrix(-0.7071 0.7071 -0.7071 -0.7071 790.8056 185.9415)" clip-path="url(#SVGID_19_)" fill="#EEC22B" cx="356.893" cy="256.752" rx="38.955" ry="38.945"/>
					
						<ellipse transform="matrix(-0.7071 0.7071 -0.7071 -0.7071 790.8056 185.9415)" clip-path="url(#SVGID_19_)" fill="#EEC22B" cx="356.893" cy="256.752" rx="38.776" ry="38.767"/>
					
						<ellipse transform="matrix(-0.7071 0.7071 -0.7071 -0.7071 790.8056 185.9415)" clip-path="url(#SVGID_19_)" fill="#EEC22C" cx="356.893" cy="256.752" rx="38.597" ry="38.588"/>
					
						<ellipse transform="matrix(-0.7071 0.7071 -0.7071 -0.7071 790.8063 185.9433)" clip-path="url(#SVGID_19_)" fill="#EEC22C" cx="356.893" cy="256.752" rx="38.419" ry="38.409"/>
					
						<ellipse transform="matrix(-0.7071 0.7071 -0.7071 -0.7071 790.8056 185.9415)" clip-path="url(#SVGID_19_)" fill="#EEC12B" cx="356.893" cy="256.752" rx="38.24" ry="38.231"/>
					
						<ellipse transform="matrix(-0.7071 0.7071 -0.7071 -0.7071 790.8056 185.9415)" clip-path="url(#SVGID_19_)" fill="#EEC12B" cx="356.893" cy="256.752" rx="38.062" ry="38.052"/>
					
						<ellipse transform="matrix(-0.7071 0.7071 -0.7071 -0.7071 790.8056 185.9415)" clip-path="url(#SVGID_19_)" fill="#EEC12B" cx="356.893" cy="256.752" rx="37.883" ry="37.873"/>
					
						<ellipse transform="matrix(-0.7071 0.7071 -0.7071 -0.7071 790.8056 185.9415)" clip-path="url(#SVGID_19_)" fill="#EEC02D" cx="356.893" cy="256.752" rx="37.628" ry="37.618"/>
					
						<ellipse transform="matrix(-0.7071 0.7071 -0.7071 -0.7071 790.8056 185.9415)" clip-path="url(#SVGID_19_)" fill="#EEC030" cx="356.893" cy="256.752" rx="37.374" ry="37.364"/>
					
						<ellipse transform="matrix(-0.7071 0.7071 -0.7071 -0.7071 790.8056 185.9415)" clip-path="url(#SVGID_19_)" fill="#EEC031" cx="356.893" cy="256.752" rx="37.119" ry="37.109"/>
					
						<ellipse transform="matrix(-0.7071 0.7071 -0.7071 -0.7071 790.8056 185.9415)" clip-path="url(#SVGID_19_)" fill="#EEC033" cx="356.893" cy="256.752" rx="36.864" ry="36.854"/>
					
						<ellipse transform="matrix(-0.7071 0.7071 -0.7071 -0.7071 790.8056 185.9415)" clip-path="url(#SVGID_19_)" fill="#EFC035" cx="356.893" cy="256.752" rx="36.609" ry="36.6"/>
					
						<ellipse transform="matrix(-0.7071 0.7071 -0.7071 -0.7071 790.8056 185.9415)" clip-path="url(#SVGID_19_)" fill="#EFC036" cx="356.893" cy="256.752" rx="36.355" ry="36.346"/>
					
						<ellipse transform="matrix(-0.7071 0.7071 -0.7071 -0.7071 790.8064 185.9434)" clip-path="url(#SVGID_19_)" fill="#EFBF38" cx="356.893" cy="256.752" rx="36.1" ry="36.091"/>
					
						<ellipse transform="matrix(-0.7071 0.7071 -0.7071 -0.7071 790.8064 185.9434)" clip-path="url(#SVGID_19_)" fill="#EFBF39" cx="356.893" cy="256.752" rx="35.845" ry="35.836"/>
					
						<ellipse transform="matrix(-0.7071 0.7071 -0.7071 -0.7071 790.8056 185.9415)" clip-path="url(#SVGID_19_)" fill="#EFBF3A" cx="356.893" cy="256.752" rx="35.591" ry="35.581"/>
					
						<ellipse transform="matrix(-0.7071 0.7071 -0.7071 -0.7071 790.8056 185.9415)" clip-path="url(#SVGID_19_)" fill="#EFBF3C" cx="356.893" cy="256.752" rx="35.336" ry="35.327"/>
					
						<ellipse transform="matrix(-0.7071 0.7071 -0.7071 -0.7071 790.8056 185.9415)" clip-path="url(#SVGID_19_)" fill="#EFBF3E" cx="356.893" cy="256.752" rx="35.081" ry="35.072"/>
					
						<ellipse transform="matrix(-0.7071 0.7071 -0.7071 -0.7071 790.8056 185.9415)" clip-path="url(#SVGID_19_)" fill="#EFBF3F" cx="356.893" cy="256.752" rx="34.826" ry="34.817"/>
					
						<ellipse transform="matrix(-0.7071 0.7071 -0.7071 -0.7071 790.8056 185.9415)" clip-path="url(#SVGID_19_)" fill="#EFBE42" cx="356.893" cy="256.752" rx="34.572" ry="34.563"/>
					
						<ellipse transform="matrix(-0.7071 0.7071 -0.7071 -0.7071 790.8056 185.9415)" clip-path="url(#SVGID_19_)" fill="#EFBE43" cx="356.893" cy="256.752" rx="34.317" ry="34.308"/>
					
						<ellipse transform="matrix(-0.7071 0.7071 -0.7071 -0.7071 790.8056 185.9415)" clip-path="url(#SVGID_19_)" fill="#EFBD44" cx="356.893" cy="256.752" rx="34.063" ry="34.054"/>
					
						<ellipse transform="matrix(-0.7071 0.7071 -0.7071 -0.7071 790.8056 185.9415)" clip-path="url(#SVGID_19_)" fill="#EFBD45" cx="356.893" cy="256.752" rx="33.808" ry="33.799"/>
					
						<ellipse transform="matrix(-0.7071 0.7071 -0.7071 -0.7071 790.8056 185.9415)" clip-path="url(#SVGID_19_)" fill="#EFBD46" cx="356.893" cy="256.752" rx="33.553" ry="33.545"/>
					
						<ellipse transform="matrix(-0.7071 0.7071 -0.7071 -0.7071 790.8056 185.9415)" clip-path="url(#SVGID_19_)" fill="#EFBD47" cx="356.893" cy="256.752" rx="33.298" ry="33.29"/>
					
						<ellipse transform="matrix(-0.7071 0.7071 -0.7071 -0.7071 790.8064 185.9436)" clip-path="url(#SVGID_19_)" fill="#EFBC48" cx="356.893" cy="256.752" rx="33.044" ry="33.035"/>
					
						<ellipse transform="matrix(-0.7071 0.7071 -0.7071 -0.7071 790.8058 185.9409)" clip-path="url(#SVGID_19_)" fill="#EFBC49" cx="356.893" cy="256.752" rx="32.789" ry="32.781"/>
					
						<ellipse transform="matrix(-0.7071 0.7071 -0.7071 -0.7071 790.8056 185.9415)" clip-path="url(#SVGID_19_)" fill="#EFBC4A" cx="356.893" cy="256.752" rx="32.535" ry="32.526"/>
					
						<ellipse transform="matrix(-0.7071 0.7071 -0.7071 -0.7071 790.8056 185.9415)" clip-path="url(#SVGID_19_)" fill="#F0BB4B" cx="356.893" cy="256.752" rx="32.28" ry="32.271"/>
					
						<ellipse transform="matrix(-0.7071 0.7071 -0.7071 -0.7071 790.8056 185.9415)" clip-path="url(#SVGID_19_)" fill="#F0BB4C" cx="356.893" cy="256.752" rx="32.025" ry="32.017"/>
					
						<ellipse transform="matrix(-0.7071 0.7071 -0.7071 -0.7071 790.8056 185.9415)" clip-path="url(#SVGID_19_)" fill="#F0BB4D" cx="356.893" cy="256.752" rx="31.77" ry="31.762"/>
					
						<ellipse transform="matrix(-0.7071 0.7071 -0.7071 -0.7071 790.8056 185.9415)" clip-path="url(#SVGID_19_)" fill="#F0BA4F" cx="356.893" cy="256.752" rx="31.515" ry="31.508"/>
					
						<ellipse transform="matrix(-0.7071 0.7071 -0.7071 -0.7071 790.8056 185.9415)" clip-path="url(#SVGID_19_)" fill="#F0BA50" cx="356.893" cy="256.752" rx="31.261" ry="31.253"/>
					
						<ellipse transform="matrix(-0.7071 0.7071 -0.7071 -0.7071 790.8056 185.9415)" clip-path="url(#SVGID_19_)" fill="#F0B951" cx="356.893" cy="256.752" rx="31.006" ry="30.998"/>
					
						<ellipse transform="matrix(-0.7071 0.7071 -0.7071 -0.7071 790.8056 185.9415)" clip-path="url(#SVGID_19_)" fill="#F0B952" cx="356.893" cy="256.752" rx="30.752" ry="30.744"/>
					
						<ellipse transform="matrix(-0.7071 0.7071 -0.7071 -0.7071 790.8056 185.9415)" clip-path="url(#SVGID_19_)" fill="#F0B952" cx="356.893" cy="256.752" rx="30.497" ry="30.489"/>
					
						<ellipse transform="matrix(-0.7071 0.7071 -0.7071 -0.7071 790.8056 185.9415)" clip-path="url(#SVGID_19_)" fill="#F0B853" cx="356.893" cy="256.752" rx="30.242" ry="30.234"/>
					
						<ellipse transform="matrix(-0.7071 0.7071 -0.7071 -0.7071 790.8065 185.9438)" clip-path="url(#SVGID_19_)" fill="#F0B854" cx="356.893" cy="256.752" rx="29.987" ry="29.98"/>
					
						<ellipse transform="matrix(-0.7071 0.7071 -0.7071 -0.7071 790.8056 185.9388)" clip-path="url(#SVGID_19_)" fill="#F0B756" cx="356.893" cy="256.752" rx="29.733" ry="29.726"/>
					
						<ellipse transform="matrix(-0.7071 0.7071 -0.7071 -0.7071 790.8056 185.9415)" clip-path="url(#SVGID_19_)" fill="#F0B757" cx="356.893" cy="256.752" rx="29.478" ry="29.471"/>
					
						<ellipse transform="matrix(-0.7071 0.7071 -0.7071 -0.7071 790.8056 185.9415)" clip-path="url(#SVGID_19_)" fill="#F0B658" cx="356.893" cy="256.752" rx="29.223" ry="29.216"/>
					
						<ellipse transform="matrix(-0.7071 0.7071 -0.7071 -0.7071 790.8056 185.9415)" clip-path="url(#SVGID_19_)" fill="#F0B658" cx="356.893" cy="256.752" rx="28.969" ry="28.961"/>
					
						<ellipse transform="matrix(-0.7071 0.7071 -0.7071 -0.7071 790.8056 185.9415)" clip-path="url(#SVGID_19_)" fill="#F0B458" cx="356.893" cy="256.752" rx="28.714" ry="28.707"/>
					
						<ellipse transform="matrix(-0.7071 0.7071 -0.7071 -0.7071 790.8058 185.9409)" clip-path="url(#SVGID_19_)" fill="#F1B357" cx="356.893" cy="256.752" rx="28.459" ry="28.452"/>
					
						<ellipse transform="matrix(-0.7071 0.7071 -0.7071 -0.7071 790.8056 185.9415)" clip-path="url(#SVGID_19_)" fill="#F1B257" cx="356.893" cy="256.752" rx="28.205" ry="28.197"/>
					
						<ellipse transform="matrix(-0.7071 0.7071 -0.7071 -0.7071 790.8056 185.9415)" clip-path="url(#SVGID_19_)" fill="#F1B257" cx="356.893" cy="256.752" rx="27.95" ry="27.943"/>
					
						<ellipse transform="matrix(-0.7071 0.7071 -0.7071 -0.7071 790.8056 185.9415)" clip-path="url(#SVGID_19_)" fill="#F1B156" cx="356.893" cy="256.752" rx="27.695" ry="27.688"/>
					
						<ellipse transform="matrix(-0.7071 0.7071 -0.7071 -0.7071 790.8056 185.9415)" clip-path="url(#SVGID_19_)" fill="#F1B056" cx="356.893" cy="256.752" rx="27.44" ry="27.434"/>
					
						<ellipse transform="matrix(-0.7071 0.7071 -0.7071 -0.7071 790.8056 185.9415)" clip-path="url(#SVGID_19_)" fill="#F1AE56" cx="356.893" cy="256.752" rx="27.186" ry="27.179"/>
					
						<ellipse transform="matrix(-0.7071 0.7071 -0.7071 -0.7071 790.8058 185.9409)" clip-path="url(#SVGID_19_)" fill="#F1AD56" cx="356.893" cy="256.752" rx="26.931" ry="26.925"/>
					
						<ellipse transform="matrix(-0.7071 0.7071 -0.7071 -0.7071 790.8056 185.9415)" clip-path="url(#SVGID_19_)" fill="#F1AC56" cx="356.893" cy="256.752" rx="26.677" ry="26.67"/>
					
						<ellipse transform="matrix(-0.7071 0.7071 -0.7071 -0.7071 790.8056 185.9415)" clip-path="url(#SVGID_19_)" fill="#F1AB56" cx="356.893" cy="256.752" rx="26.422" ry="26.415"/>
					
						<ellipse transform="matrix(-0.7071 0.7071 -0.7071 -0.7071 790.8056 185.9415)" clip-path="url(#SVGID_19_)" fill="#F1AA56" cx="356.893" cy="256.752" rx="26.167" ry="26.161"/>
					
						<ellipse transform="matrix(-0.7071 0.7071 -0.7071 -0.7071 790.8056 185.9415)" clip-path="url(#SVGID_19_)" fill="#F1A955" cx="356.893" cy="256.752" rx="25.912" ry="25.906"/>
					
						<ellipse transform="matrix(-0.7071 0.7071 -0.7071 -0.7071 790.8065 185.9442)" clip-path="url(#SVGID_19_)" fill="#F1A854" cx="356.893" cy="256.752" rx="25.658" ry="25.651"/>
					
						<ellipse transform="matrix(-0.7071 0.7071 -0.7071 -0.7071 790.8056 185.9415)" clip-path="url(#SVGID_19_)" fill="#F1A754" cx="356.893" cy="256.752" rx="25.403" ry="25.396"/>
					
						<ellipse transform="matrix(-0.7071 0.7071 -0.7071 -0.7071 790.8056 185.9415)" clip-path="url(#SVGID_19_)" fill="#F1A654" cx="356.893" cy="256.752" rx="25.149" ry="25.142"/>
					
						<ellipse transform="matrix(-0.7071 0.7071 -0.7071 -0.7071 790.8056 185.9415)" clip-path="url(#SVGID_19_)" fill="#F1A553" cx="356.893" cy="256.752" rx="24.894" ry="24.888"/>
					
						<ellipse transform="matrix(-0.7071 0.7071 -0.7071 -0.7071 790.8056 185.9415)" clip-path="url(#SVGID_19_)" fill="#F1A453" cx="356.893" cy="256.752" rx="24.639" ry="24.633"/>
					
						<ellipse transform="matrix(-0.7071 0.7071 -0.7071 -0.7071 790.8056 185.9415)" clip-path="url(#SVGID_19_)" fill="#F2A253" cx="356.893" cy="256.752" rx="24.384" ry="24.378"/>
					
						<ellipse transform="matrix(-0.7071 0.7071 -0.7071 -0.7071 790.8056 185.9415)" clip-path="url(#SVGID_19_)" fill="#F2A153" cx="356.893" cy="256.752" rx="24.129" ry="24.124"/>
					
						<ellipse transform="matrix(-0.7071 0.7071 -0.7071 -0.7071 790.8056 185.9415)" clip-path="url(#SVGID_19_)" fill="#F2A052" cx="356.893" cy="256.752" rx="23.875" ry="23.869"/>
					
						<ellipse transform="matrix(-0.7071 0.7071 -0.7071 -0.7071 790.8056 185.9415)" clip-path="url(#SVGID_19_)" fill="#F29F52" cx="356.893" cy="256.752" rx="23.62" ry="23.614"/>
					
						<ellipse transform="matrix(-0.7071 0.7071 -0.7071 -0.7071 790.8056 185.9415)" clip-path="url(#SVGID_19_)" fill="#F29F52" cx="356.893" cy="256.752" rx="23.366" ry="23.359"/>
					
						<ellipse transform="matrix(-0.7071 0.7071 -0.7071 -0.7071 790.8056 185.9415)" clip-path="url(#SVGID_19_)" fill="#F29D51" cx="356.893" cy="256.752" rx="23.111" ry="23.105"/>
					
						<ellipse transform="matrix(-0.7071 0.7071 -0.7071 -0.7071 790.8056 185.9415)" clip-path="url(#SVGID_19_)" fill="#F29C51" cx="356.893" cy="256.752" rx="22.856" ry="22.85"/>
					
						<ellipse transform="matrix(-0.7071 0.7071 -0.7071 -0.7071 790.8056 185.9415)" clip-path="url(#SVGID_19_)" fill="#F39C51" cx="356.893" cy="256.752" rx="22.602" ry="22.596"/>
					
						<ellipse transform="matrix(-0.7071 0.7071 -0.7071 -0.7071 790.8056 185.9415)" clip-path="url(#SVGID_19_)" fill="#F39B51" cx="356.893" cy="256.752" rx="22.347" ry="22.341"/>
					
						<ellipse transform="matrix(-0.7071 0.7071 -0.7071 -0.7071 790.8056 185.9415)" clip-path="url(#SVGID_19_)" fill="#F39A51" cx="356.893" cy="256.752" rx="22.092" ry="22.087"/>
					
						<ellipse transform="matrix(-0.7071 0.7071 -0.7071 -0.7071 790.8056 185.9415)" clip-path="url(#SVGID_19_)" fill="#F39850" cx="356.893" cy="256.752" rx="21.837" ry="21.832"/>
					
						<ellipse transform="matrix(-0.7071 0.7071 -0.7071 -0.7071 790.8056 185.9415)" clip-path="url(#SVGID_19_)" fill="#F39850" cx="356.893" cy="256.752" rx="21.583" ry="21.577"/>
					<circle clip-path="url(#SVGID_19_)" fill="#F39750" cx="356.893" cy="256.752" r="21.328"/>
					<circle clip-path="url(#SVGID_19_)" fill="#F39650" cx="356.893" cy="256.752" r="21.073"/>
					
						<ellipse transform="matrix(-0.7071 0.7071 -0.7071 -0.7071 790.8056 185.9415)" clip-path="url(#SVGID_19_)" fill="#F3954F" cx="356.893" cy="256.752" rx="20.819" ry="20.813"/>
					
						<ellipse transform="matrix(-0.7071 0.7071 -0.7071 -0.7071 790.8056 185.9415)" clip-path="url(#SVGID_19_)" fill="#F3944F" cx="356.893" cy="256.752" rx="20.564" ry="20.559"/>
					
						<ellipse transform="matrix(-0.7071 0.7071 -0.7071 -0.7071 790.8056 185.9415)" clip-path="url(#SVGID_19_)" fill="#F3934F" cx="356.893" cy="256.752" rx="20.309" ry="20.304"/>
					<circle clip-path="url(#SVGID_19_)" fill="#F3924E" cx="356.893" cy="256.752" r="20.054"/>
					<circle clip-path="url(#SVGID_19_)" fill="#F3914E" cx="356.893" cy="256.752" r="19.8"/>
					
						<ellipse transform="matrix(-0.7071 0.7071 -0.7071 -0.7071 790.8056 185.9415)" clip-path="url(#SVGID_19_)" fill="#F48F4D" cx="356.893" cy="256.752" rx="19.546" ry="19.54"/>
					<circle clip-path="url(#SVGID_19_)" fill="#F48F4D" cx="356.893" cy="256.752" r="19.291"/>
					<circle clip-path="url(#SVGID_19_)" fill="#F48E4D" cx="356.893" cy="256.752" r="19.036"/>
					<circle clip-path="url(#SVGID_19_)" fill="#F58D4D" cx="356.893" cy="256.752" r="18.781"/>
					<circle clip-path="url(#SVGID_19_)" fill="#F58D4C" cx="356.893" cy="256.752" r="18.526"/>
					<circle clip-path="url(#SVGID_19_)" fill="#F58B4B" cx="356.893" cy="256.752" r="18.272"/>
					<circle clip-path="url(#SVGID_19_)" fill="#F58A4B" cx="356.893" cy="256.752" r="18.017"/>
					<circle clip-path="url(#SVGID_19_)" fill="#F5894B" cx="356.893" cy="256.752" r="17.763"/>
					<circle clip-path="url(#SVGID_19_)" fill="#F5894B" cx="356.893" cy="256.752" r="17.508"/>
					<circle clip-path="url(#SVGID_19_)" fill="#F4874A" cx="356.893" cy="256.752" r="17.253"/>
					<circle clip-path="url(#SVGID_19_)" fill="#F58749" cx="356.893" cy="256.752" r="16.998"/>
					<circle clip-path="url(#SVGID_19_)" fill="#F58649" cx="356.893" cy="256.752" r="16.743"/>
					<circle clip-path="url(#SVGID_19_)" fill="#F48549" cx="356.893" cy="256.752" r="16.489"/>
					<circle clip-path="url(#SVGID_19_)" fill="#F58448" cx="356.893" cy="256.752" r="16.234"/>
					<circle clip-path="url(#SVGID_19_)" fill="#F58348" cx="356.893" cy="256.752" r="15.98"/>
					<circle clip-path="url(#SVGID_19_)" fill="#F58348" cx="356.893" cy="256.752" r="15.725"/>
					<circle clip-path="url(#SVGID_19_)" fill="#F58348" cx="356.893" cy="256.752" r="15.368"/>
					<circle clip-path="url(#SVGID_19_)" fill="#F58349" cx="356.893" cy="256.752" r="15.01"/>
					<circle clip-path="url(#SVGID_19_)" fill="#F58349" cx="356.893" cy="256.752" r="14.653"/>
					<circle clip-path="url(#SVGID_19_)" fill="#F5834A" cx="356.893" cy="256.752" r="14.295"/>
					<circle clip-path="url(#SVGID_19_)" fill="#F58349" cx="356.893" cy="256.752" r="13.938"/>
					<circle clip-path="url(#SVGID_19_)" fill="#F58249" cx="356.893" cy="256.752" r="13.581"/>
					<circle clip-path="url(#SVGID_19_)" fill="#F5824A" cx="356.893" cy="256.752" r="13.223"/>
					<circle clip-path="url(#SVGID_19_)" fill="#F5814A" cx="356.893" cy="256.752" r="12.866"/>
					<circle clip-path="url(#SVGID_19_)" fill="#F5814A" cx="356.893" cy="256.752" r="12.508"/>
					<circle clip-path="url(#SVGID_19_)" fill="#F5814B" cx="356.893" cy="256.752" r="12.151"/>
					<circle clip-path="url(#SVGID_19_)" fill="#F5804B" cx="356.893" cy="256.752" r="11.794"/>
					<circle clip-path="url(#SVGID_19_)" fill="#F5804B" cx="356.893" cy="256.752" r="11.437"/>
					<circle clip-path="url(#SVGID_19_)" fill="#F5804B" cx="356.893" cy="256.752" r="11.079"/>
					<circle clip-path="url(#SVGID_19_)" fill="#F47F4B" cx="356.893" cy="256.752" r="10.722"/>
					<circle clip-path="url(#SVGID_19_)" fill="#F5804C" cx="356.893" cy="256.752" r="10.364"/>
					<circle clip-path="url(#SVGID_19_)" fill="#F47F4C" cx="356.893" cy="256.752" r="10.007"/>
					<circle clip-path="url(#SVGID_19_)" fill="#F47F4C" cx="356.893" cy="256.752" r="9.65"/>
					<circle clip-path="url(#SVGID_19_)" fill="#F47E4C" cx="356.893" cy="256.752" r="9.292"/>
					<circle clip-path="url(#SVGID_19_)" fill="#F47E4C" cx="356.893" cy="256.752" r="8.935"/>
					<circle clip-path="url(#SVGID_19_)" fill="#F47E4D" cx="356.893" cy="256.752" r="8.577"/>
					<circle clip-path="url(#SVGID_19_)" fill="#F47D4D" cx="356.893" cy="256.752" r="8.22"/>
					<circle clip-path="url(#SVGID_19_)" fill="#F47D4D" cx="356.893" cy="256.752" r="7.862"/>
					<circle clip-path="url(#SVGID_19_)" fill="#F47D4D" cx="356.893" cy="256.752" r="7.505"/>
					<circle clip-path="url(#SVGID_19_)" fill="#F47C4D" cx="356.893" cy="256.752" r="7.148"/>
					<circle clip-path="url(#SVGID_19_)" fill="#F47C4E" cx="356.893" cy="256.752" r="6.79"/>
					<circle clip-path="url(#SVGID_19_)" fill="#F47C4E" cx="356.893" cy="256.752" r="6.433"/>
					<circle clip-path="url(#SVGID_19_)" fill="#F47C4E" cx="356.893" cy="256.752" r="6.075"/>
					<circle clip-path="url(#SVGID_19_)" fill="#F47C4F" cx="356.893" cy="256.752" r="5.718"/>
					<circle clip-path="url(#SVGID_19_)" fill="#F47C4F" cx="356.893" cy="256.752" r="5.361"/>
					<circle clip-path="url(#SVGID_19_)" fill="#F47B4F" cx="356.893" cy="256.752" r="5.004"/>
					<circle clip-path="url(#SVGID_19_)" fill="#F47B4F" cx="356.893" cy="256.752" r="4.646"/>
					<circle clip-path="url(#SVGID_19_)" fill="#F47A4F" cx="356.893" cy="256.752" r="4.289"/>
					<circle clip-path="url(#SVGID_19_)" fill="#F47B50" cx="356.893" cy="256.752" r="3.931"/>
					<circle clip-path="url(#SVGID_19_)" fill="#F47A50" cx="356.893" cy="256.752" r="3.574"/>
					<circle clip-path="url(#SVGID_19_)" fill="#F47A51" cx="356.893" cy="256.752" r="3.217"/>
					<circle clip-path="url(#SVGID_19_)" fill="#F47A50" cx="356.893" cy="256.752" r="2.859"/>
					<circle clip-path="url(#SVGID_19_)" fill="#F47950" cx="356.893" cy="256.752" r="2.502"/>
					<circle clip-path="url(#SVGID_19_)" fill="#F47951" cx="356.893" cy="256.752" r="2.144"/>
					<circle clip-path="url(#SVGID_19_)" fill="#F47851" cx="356.893" cy="256.752" r="1.787"/>
					<circle clip-path="url(#SVGID_19_)" fill="#F47851" cx="356.893" cy="256.752" r="1.429"/>
					<circle clip-path="url(#SVGID_19_)" fill="#F47851" cx="356.893" cy="256.752" r="1.072"/>
					<circle clip-path="url(#SVGID_19_)" fill="#E97E5E" cx="356.893" cy="256.752" r="0.715"/>
					<circle clip-path="url(#SVGID_19_)" fill="#F47852" cx="356.893" cy="256.752" r="0.357"/>
				</g>
			</g>
			<path fill="#FFFFFF" d="M406.209,191.934l3.794,37.391c-41.155,2.094-59.573,17.45-61.824,35.236
				c-1.845,14.568,12.669,28.517,38.039,31.728c7.628,0.966,13.804,1.171,18.429,1.372l-2.476,34.868
				c-6.772-0.088-13.734-0.202-22.698-1.337c-62.563-7.919-81.643-42.438-78.433-67.792
				C305.016,231.989,338.631,197.604,406.209,191.934 M411.279,185.827l-5.544,0.465c-70.269,5.896-106.036,42.618-110.312,76.396
				c-3.943,31.143,20.297,66.14,83.338,74.121c9.485,1.2,16.843,1.296,23.335,1.381l5.342,0.069l0.378-5.33l2.476-34.868
				l0.412-5.804l-5.813-0.252l-1.164-0.05c-4.467-0.189-10.026-0.425-16.801-1.282c-10.88-1.377-20.192-5.022-26.221-10.262
				c-5.129-4.458-7.584-9.834-6.912-15.139c2.22-17.538,22.812-28.579,56.496-30.293l5.945-0.302l-0.601-5.923l-3.794-37.391
				L411.279,185.827L411.279,185.827z"/>
		</g>
		<g>
			<radialGradient id="SVGID_20_" cx="61.4658" cy="259.7666" r="76.0303" gradientUnits="userSpaceOnUse">
				<stop  offset="0" style="stop-color:#F47852"/>
				<stop  offset="0.2366" style="stop-color:#F58348"/>
				<stop  offset="0.5699" style="stop-color:#EEC12B"/>
				<stop  offset="1" style="stop-color:#E2E41D"/>
			</radialGradient>
			<path fill="url(#SVGID_20_)" d="M9.584,303.826L13,303.933c1.117,0.033,2.237,0.051,3.359,0.051
				c21.96,0,41.224-6.466,41.224-13.836c0-2.978-3.616-5.634-21.499-15.79C19.637,264.961,2.83,252.598,2.83,232.12
				c0-26.104,33.872-56.793,96.647-62.252l2.621-0.229l7.267,44.953h-3.325c-34.018,0-41.159,6.096-41.159,11.21
				c0,3.684,7.438,7.342,19.759,13.405l1.356,0.667c11.068,5.431,34.106,16.733,34.106,40.212c0,26.72-26.333,60.955-100.547,69.499
				l-2.696,0.31L9.584,303.826z"/>
			<path fill="#FFFFFF" d="M99.723,172.687l6.317,39.075c-29.248,0-43.989,4.447-43.989,14.041c0,5.615,7.488,9.124,22.697,16.612
				c12.403,6.085,32.525,16.613,32.525,37.672c0,25.739-26.908,58.498-98.041,66.687l-6.317-40.011
				c1.144,0.035,2.295,0.053,3.447,0.053c21.689,0,44.053-6.223,44.053-16.667c0-4.679-3.979-7.487-22.931-18.251
				c-14.741-8.422-31.823-20.123-31.823-39.777C5.661,205.912,40.525,177.834,99.723,172.687 M104.473,166.591l-5.24,0.456
				C34.086,172.711,0,204.07,0,232.119c0,21.925,17.529,34.896,34.676,44.692c8.48,4.816,20.078,11.403,20.078,13.336
				c0,3.88-14.576,11.005-38.392,11.005c-1.093,0-2.186-0.017-3.272-0.05l-6.833-0.211l1.066,6.753l6.317,40.011l0.847,5.361
				l5.393-0.62c76.064-8.756,103.054-44.425,103.054-72.311c0-25.242-24.107-37.07-35.692-42.754l-1.35-0.665
				c-8.099-3.984-18.179-8.943-18.179-10.865c0-0.857,1.076-8.379,38.328-8.379h6.65l-1.062-6.565l-6.317-39.074L104.473,166.591
				L104.473,166.591z"/>
		</g>
		<g>
			<path d="M983.199,190.688c-0.23,4.621-1.154,45.049-1.154,69.768v34.421c5.082,0,29.803,0,46.666-0.923l0.232,38.349
				c-6.238,0-79.24-2.08-97.26-2.08c0.463-10.396,0.463-52.441,0.463-57.062v-26.104c0-3.234-0.463-52.441-0.693-56.369H983.199z"/>
			<path d="M907.945,199.381c-0.23,4.621-1.154,45.049-1.154,69.768v34.421c5.082,0,29.801,0,46.666-0.923l0.23,38.349
				c-6.238,0-79.24-2.079-97.258-2.079c0.461-10.396,0.461-52.441,0.461-57.062V255.75c0-3.234-0.461-52.441-0.693-56.369H907.945z"
				/>
			<path d="M692.027,334.328c6.238-9.935,62.605-102.111,83.859-132.143h4.389c25.645,35.576,80.625,118.512,89.406,129.832
				l-42.51,23.332c-6.236-9.473-16.863-27.26-18.48-29.57l-61.682,3.004c-1.156,1.848-8.777,17.557-13.398,26.797L692.027,334.328z
				 M794.6,297.133c-5.775-11.32-13.4-24.256-17.326-32.342c-4.852,9.471-12.014,23.102-17.326,33.959L794.6,297.133z"/>
			<radialGradient id="SVGID_21_" cx="963.0801" cy="244.1064" r="60.785" gradientUnits="userSpaceOnUse">
				<stop  offset="0" style="stop-color:#F47852"/>
				<stop  offset="0.2366" style="stop-color:#F58348"/>
				<stop  offset="0.5699" style="stop-color:#EEC12B"/>
				<stop  offset="1" style="stop-color:#E2E41D"/>
			</radialGradient>
			<path fill="url(#SVGID_21_)" stroke="#FFFFFF" stroke-width="8" stroke-miterlimit="10" d="M966.082,173.299
				c-0.23,4.621-1.154,45.049-1.154,69.768v34.421c5.082,0,29.801,0,46.666-0.923l0.23,38.349c-6.238,0-79.238-2.079-97.258-2.079
				c0.463-10.396,0.463-52.441,0.463-57.062v-26.104c0-3.234-0.463-52.441-0.693-56.369H966.082z"/>
			<path d="M546.649,226.215c0-9.284-0.618-64.378-1.546-70.879c44.879,0,68.403,0.31,95.641,3.716
				c64.379,8.046,73.045,33.736,73.045,51.069c0,11.453-6.188,30.641-38.998,45.808v1.858c21.355,4.024,48.594,18.261,48.594,47.975
				c0,34.975-46.736,71.188-148.877,71.188h-29.404c1.546-17.022,1.546-110.497,1.546-116.378V226.215z M611.031,248.501
				c13.309,0,34.975-12.381,34.975-34.976c0-20.428-22.285-24.142-34.975-23.213V248.501z M611.031,338.88
				c17.021,0,42.713-13.62,42.713-31.262c0-20.119-21.357-30.023-42.713-29.095V338.88z"/>
			<radialGradient id="SVGID_22_" cx="617.3096" cy="249.8467" r="100.5595" gradientUnits="userSpaceOnUse">
				<stop  offset="0" style="stop-color:#F47852"/>
				<stop  offset="0.2366" style="stop-color:#F58348"/>
				<stop  offset="0.5699" style="stop-color:#EEC12B"/>
				<stop  offset="1" style="stop-color:#E2E41D"/>
			</radialGradient>
			<path fill="url(#SVGID_22_)" stroke="#FFFFFF" stroke-width="8" stroke-miterlimit="10" d="M529.716,209.918
				c0-9.284-0.618-64.378-1.548-70.879c44.88,0,68.404,0.31,95.642,3.716c64.379,8.046,73.045,33.735,73.045,51.069
				c0,11.453-6.189,30.642-38.998,45.808v1.858c21.355,4.024,48.594,18.261,48.594,47.975c0,34.975-46.736,71.189-148.878,71.189
				h-29.405c1.548-17.023,1.548-110.497,1.548-116.379V209.918z M594.097,232.204c13.309,0,34.975-12.381,34.975-34.975
				c0-20.428-22.285-24.142-34.975-23.213V232.204z M594.097,322.583c17.022,0,42.713-13.62,42.713-31.262
				c0-20.118-21.357-30.023-42.713-29.095V322.583z"/>
			<radialGradient id="SVGID_23_" cx="887.8252" cy="252.8003" r="60.7854" gradientUnits="userSpaceOnUse">
				<stop  offset="0" style="stop-color:#F47852"/>
				<stop  offset="0.2366" style="stop-color:#F58348"/>
				<stop  offset="0.5699" style="stop-color:#EEC12B"/>
				<stop  offset="1" style="stop-color:#E2E41D"/>
			</radialGradient>
			<path fill="url(#SVGID_23_)" stroke="#FFFFFF" stroke-width="8" stroke-miterlimit="10" d="M890.828,181.993
				c-0.23,4.621-1.154,45.049-1.154,69.768v34.421c5.082,0,29.801,0,46.666-0.923l0.23,38.349c-6.238,0-79.24-2.079-97.258-2.079
				c0.461-10.396,0.461-52.441,0.461-57.062v-26.104c0-3.234-0.461-52.441-0.693-56.369H890.828z"/>
			<radialGradient id="SVGID_24_" cx="763.7373" cy="261.4941" r="82.9844" gradientUnits="userSpaceOnUse">
				<stop  offset="0" style="stop-color:#F47852"/>
				<stop  offset="0.2366" style="stop-color:#F58348"/>
				<stop  offset="0.5699" style="stop-color:#EEC12B"/>
				<stop  offset="1" style="stop-color:#E2E41D"/>
			</radialGradient>
			<path fill="url(#SVGID_24_)" stroke="#FFFFFF" stroke-width="8" stroke-miterlimit="10" d="M674.91,316.939
				c6.238-9.935,62.605-102.111,83.859-132.143h4.389c25.645,35.576,80.625,118.512,89.406,129.832l-42.51,23.333
				c-6.236-9.473-16.863-27.26-18.48-29.57l-61.682,3.003c-1.156,1.848-8.777,17.558-13.398,26.798L674.91,316.939z
				 M777.482,279.745c-5.775-11.32-13.4-24.256-17.326-32.342c-4.852,9.471-12.014,23.102-17.326,33.959L777.482,279.745z"/>
		</g>
	</g>
</g>
</svg>
